999
"DXF R12 Output" (www.mydxf.blogspot.com)
 0 
SECTION
 2 
HEADER
 9 
$ACADVER
 1 
AC1009
 9 
$EXTMIN
 10 
 0 
 20 
 0 
 9 
$EXTMAX
 10 
 8.5 
 20 
 11 
 0 
ENDSEC
 0 
SECTION
 2 
ENTITIES
0
LINE
8
Layer 1
10
155.055000
20
78.468300
11
147.086171
21
78.363404
0
LINE
8
Layer 1
10
147.086171
20
78.363404
11
139.221733
21
78.058901
0
LINE
8
Layer 1
10
139.221733
20
78.058901
11
131.471381
21
77.559676
0
LINE
8
Layer 1
10
131.471381
20
77.559676
11
123.844809
21
76.870612
0
LINE
8
Layer 1
10
123.844809
20
76.870612
11
116.351714
21
75.996593
0
LINE
8
Layer 1
10
116.351714
20
75.996593
11
109.001790
21
74.942500
0
LINE
8
Layer 1
10
109.001790
20
74.942500
11
101.804733
21
73.713219
0
LINE
8
Layer 1
10
101.804733
20
73.713219
11
94.770238
21
72.313632
0
LINE
8
Layer 1
10
94.770238
20
72.313632
11
87.908000
21
70.748622
0
LINE
8
Layer 1
10
87.908000
20
70.748622
11
81.227715
21
69.023074
0
LINE
8
Layer 1
10
81.227715
20
69.023074
11
74.739077
21
67.141869
0
LINE
8
Layer 1
10
74.739077
20
67.141869
11
68.451783
21
65.109893
0
LINE
8
Layer 1
10
68.451783
20
65.109893
11
62.375527
21
62.932027
0
LINE
8
Layer 1
10
62.375527
20
62.932027
11
56.520004
21
60.613156
0
LINE
8
Layer 1
10
56.520004
20
60.613156
11
50.894911
21
58.158162
0
LINE
8
Layer 1
10
50.894911
20
58.158162
11
45.509941
21
55.571930
0
LINE
8
Layer 1
10
45.509941
20
55.571930
11
40.374791
21
52.859342
0
LINE
8
Layer 1
10
40.374791
20
52.859342
11
35.499155
21
50.025282
0
LINE
8
Layer 1
10
35.499155
20
50.025282
11
30.892730
21
47.074633
0
LINE
8
Layer 1
10
30.892730
20
47.074633
11
26.565209
21
44.012278
0
LINE
8
Layer 1
10
26.565209
20
44.012278
11
22.526289
21
40.843101
0
LINE
8
Layer 1
10
22.526289
20
40.843101
11
18.785665
21
37.571985
0
LINE
8
Layer 1
10
18.785665
20
37.571985
11
15.353031
21
34.203814
0
LINE
8
Layer 1
10
15.353031
20
34.203814
11
12.238084
21
30.743471
0
LINE
8
Layer 1
10
12.238084
20
30.743471
11
9.450518
21
27.195839
0
LINE
8
Layer 1
10
9.450518
20
27.195839
11
7.000029
21
23.565802
0
LINE
8
Layer 1
10
7.000029
20
23.565802
11
4.896313
21
19.858243
0
LINE
8
Layer 1
10
4.896313
20
19.858243
11
3.149063
21
16.078045
0
LINE
8
Layer 1
10
3.149063
20
16.078045
11
1.767976
21
12.230091
0
LINE
8
Layer 1
10
1.767976
20
12.230091
11
0.762747
21
8.319266
0
LINE
8
Layer 1
10
0.762747
20
8.319266
11
0.143071
21
4.350452
0
LINE
8
Layer 1
10
0.143071
20
4.350452
11
-0.081357
21
0.328533
0
LINE
8
Layer 1
10
-0.081357
20
0.328533
11
-0.081357
21
0.205738
0
LINE
8
Layer 1
10
-0.081357
20
0.205738
11
78.268500
21
0.205738
0
LINE
8
Layer 1
10
78.268500
20
0.205738
11
78.373973
21
4.154720
0
LINE
8
Layer 1
10
78.373973
20
4.154720
11
78.675499
21
8.051787
0
LINE
8
Layer 1
10
78.675499
20
8.051787
11
79.168274
21
11.892134
0
LINE
8
Layer 1
10
79.168274
20
11.892134
11
79.847492
21
15.670957
0
LINE
8
Layer 1
10
79.847492
20
15.670957
11
80.708350
21
19.383452
0
LINE
8
Layer 1
10
80.708350
20
19.383452
11
81.746043
21
23.024812
0
LINE
8
Layer 1
10
81.746043
20
23.024812
11
82.955767
21
26.590235
0
LINE
8
Layer 1
10
82.955767
20
26.590235
11
84.332716
21
30.074914
0
LINE
8
Layer 1
10
84.332716
20
30.074914
11
85.872085
21
33.474047
0
LINE
8
Layer 1
10
85.872085
20
33.474047
11
87.569072
21
36.782827
0
LINE
8
Layer 1
10
87.569072
20
36.782827
11
89.418870
21
39.996451
0
LINE
8
Layer 1
10
89.418870
20
39.996451
11
91.416675
21
43.110114
0
LINE
8
Layer 1
10
91.416675
20
43.110114
11
93.557683
21
46.119011
0
LINE
8
Layer 1
10
93.557683
20
46.119011
11
95.837089
21
49.018338
0
LINE
8
Layer 1
10
95.837089
20
49.018338
11
98.250088
21
51.803290
0
LINE
8
Layer 1
10
98.250088
20
51.803290
11
100.791876
21
54.469062
0
LINE
8
Layer 1
10
100.791876
20
54.469062
11
103.457648
21
57.010850
0
LINE
8
Layer 1
10
103.457648
20
57.010850
11
106.242600
21
59.423849
0
LINE
8
Layer 1
10
106.242600
20
59.423849
11
109.141927
21
61.703255
0
LINE
8
Layer 1
10
109.141927
20
61.703255
11
112.150824
21
63.844263
0
LINE
8
Layer 1
10
112.150824
20
63.844263
11
115.264487
21
65.842068
0
LINE
8
Layer 1
10
115.264487
20
65.842068
11
118.478111
21
67.691866
0
LINE
8
Layer 1
10
118.478111
20
67.691866
11
121.786891
21
69.388853
0
LINE
8
Layer 1
10
121.786891
20
69.388853
11
125.186024
21
70.928222
0
LINE
8
Layer 1
10
125.186024
20
70.928222
11
128.670703
21
72.305171
0
LINE
8
Layer 1
10
128.670703
20
72.305171
11
132.236126
21
73.514895
0
LINE
8
Layer 1
10
132.236126
20
73.514895
11
135.877486
21
74.552588
0
LINE
8
Layer 1
10
135.877486
20
74.552588
11
139.589981
21
75.413446
0
LINE
8
Layer 1
10
139.589981
20
75.413446
11
143.368804
21
76.092664
0
LINE
8
Layer 1
10
143.368804
20
76.092664
11
147.209151
21
76.585439
0
LINE
8
Layer 1
10
147.209151
20
76.585439
11
151.106218
21
76.886965
0
LINE
8
Layer 1
10
151.106218
20
76.886965
11
155.055200
21
76.992438
0
LINE
8
Layer 1
10
155.055200
20
76.992438
11
186.064000
21
76.992400
0
LINE
8
Layer 1
10
186.064000
20
76.992400
11
186.064000
21
78.468300
0
LINE
8
Layer 1
10
186.064000
20
78.468300
11
155.055000
21
78.468300
 0 
ENDSEC
 0 
EOF