%TF.GenerationSoftware,KiCad,Pcbnew,5.1.9-73d0e3b20d~88~ubuntu20.04.1*%
%TF.CreationDate,2021-08-29T02:04:36+07:00*%
%TF.ProjectId,rf_gpr,72665f67-7072-42e6-9b69-6361645f7063,rev?*%
%TF.SameCoordinates,Original*%
%TF.FileFunction,Copper,L2,Bot*%
%TF.FilePolarity,Positive*%
%FSLAX46Y46*%
G04 Gerber Fmt 4.6, Leading zero omitted, Abs format (unit mm)*
G04 Created by KiCad (PCBNEW 5.1.9-73d0e3b20d~88~ubuntu20.04.1) date 2021-08-29 02:04:36*
%MOMM*%
%LPD*%
G01*
G04 APERTURE LIST*
%TA.AperFunction,ComponentPad*%
%ADD10O,1.700000X1.700000*%
%TD*%
%TA.AperFunction,ComponentPad*%
%ADD11R,1.700000X1.700000*%
%TD*%
%TA.AperFunction,ComponentPad*%
%ADD12C,0.808000*%
%TD*%
%TA.AperFunction,ComponentPad*%
%ADD13C,1.016000*%
%TD*%
%TA.AperFunction,ComponentPad*%
%ADD14C,0.762000*%
%TD*%
%TA.AperFunction,ComponentPad*%
%ADD15C,2.240000*%
%TD*%
%TA.AperFunction,ComponentPad*%
%ADD16C,2.740000*%
%TD*%
%TA.AperFunction,ViaPad*%
%ADD17C,0.800000*%
%TD*%
%TA.AperFunction,Conductor*%
%ADD18C,1.000000*%
%TD*%
%TA.AperFunction,Conductor*%
%ADD19C,0.254000*%
%TD*%
%TA.AperFunction,Conductor*%
%ADD20C,0.100000*%
%TD*%
G04 APERTURE END LIST*
D10*
%TO.P,Dummy,2*%
%TO.N,N/C*%
X157480000Y-86360000D03*
D11*
%TO.P,Dummy,1*%
X157480000Y-83820000D03*
%TD*%
D12*
%TO.P,U8,3*%
%TO.N,Net-(C4-Pad2)*%
X136283700Y-96685100D03*
X136283700Y-95770700D03*
%TO.P,U8,1*%
%TO.N,Net-(U5-Pad1)*%
X130441700Y-94602300D03*
X130441700Y-93687900D03*
%TD*%
%TO.P,U4,3*%
%TO.N,Net-(C1-Pad1)*%
X122796300Y-64604900D03*
X122796300Y-65519300D03*
%TO.P,U4,1*%
%TO.N,Net-(U4-Pad1)*%
X128638300Y-66687700D03*
X128638300Y-67602100D03*
%TD*%
D13*
%TO.P,U3,6*%
%TO.N,Net-(U3-Pad6)*%
X127000000Y-86360000D03*
X127000000Y-85090000D03*
X127000000Y-83820000D03*
X127000000Y-82550000D03*
X127000000Y-81280000D03*
%TD*%
D14*
%TO.P,U2,4*%
%TO.N,GND*%
X111760000Y-64135000D03*
D13*
X110490000Y-61404500D03*
X113030000Y-62953900D03*
X113030000Y-61404500D03*
X110490000Y-62953900D03*
X111760000Y-61404500D03*
%TO.P,U2,2*%
X110490000Y-66586100D03*
X113030000Y-66586100D03*
X110490000Y-68135500D03*
X111760000Y-68135500D03*
X113030000Y-68135500D03*
D14*
X111760000Y-65405000D03*
%TD*%
D13*
%TO.P,U1,1*%
%TO.N,GND*%
X90525600Y-62230000D03*
X90525600Y-67310000D03*
X90525600Y-69850000D03*
X90525600Y-74930000D03*
X90525600Y-77470000D03*
X105486200Y-77470000D03*
X105486200Y-74930000D03*
X105486200Y-72390000D03*
X105486200Y-69850000D03*
X105486200Y-67310000D03*
X105486200Y-62230000D03*
X100660200Y-62230000D03*
X100660200Y-64770000D03*
X100660200Y-67310000D03*
X100660200Y-69850000D03*
X100660200Y-72390000D03*
X100660200Y-74930000D03*
X100660200Y-77470000D03*
X95351600Y-77470000D03*
X95351600Y-74930000D03*
X95351600Y-72390000D03*
X95351600Y-69850000D03*
X95351600Y-67310000D03*
X95351600Y-64770000D03*
X95351600Y-62230000D03*
%TD*%
D15*
%TO.P,J3,1*%
%TO.N,Net-(C4-Pad1)*%
X147320000Y-96520000D03*
D16*
%TO.P,J3,2*%
%TO.N,GND*%
X144780000Y-93980000D03*
X149860000Y-93980000D03*
X149860000Y-99060000D03*
X144780000Y-99060000D03*
%TD*%
D15*
%TO.P,J2,1*%
%TO.N,Net-(J2-Pad1)*%
X154940000Y-72390000D03*
D16*
%TO.P,J2,2*%
%TO.N,GND*%
X152400000Y-69850000D03*
X157480000Y-69850000D03*
X157480000Y-74930000D03*
X152400000Y-74930000D03*
%TD*%
D10*
%TO.P,J1,5*%
%TO.N,Net-(J1-Pad5)*%
X82550000Y-72390000D03*
%TO.P,J1,4*%
%TO.N,GND*%
X82550000Y-74930000D03*
%TO.P,J1,3*%
%TO.N,Net-(J1-Pad3)*%
X82550000Y-77470000D03*
%TO.P,J1,2*%
%TO.N,+5V*%
X82550000Y-80010000D03*
D11*
%TO.P,J1,1*%
%TO.N,Net-(J1-Pad1)*%
X82550000Y-82550000D03*
%TD*%
D17*
%TO.N,GND*%
X128270000Y-63500000D03*
X138430000Y-59690000D03*
X132080000Y-83820000D03*
X121920000Y-81280000D03*
X130810000Y-97790000D03*
X118110000Y-96520000D03*
%TD*%
D18*
%TO.N,GND*%
X82550000Y-74930000D02*
X90525600Y-74930000D01*
X152400000Y-74930000D02*
X157480000Y-74930000D01*
X152400000Y-69850000D02*
X157480000Y-69850000D01*
X157480000Y-69850000D02*
X157480000Y-74930000D01*
%TD*%
D19*
%TO.N,GND*%
X164440000Y-103480000D02*
X75590000Y-103480000D01*
X75590000Y-100459082D01*
X143560523Y-100459082D01*
X143700889Y-100761334D01*
X144053538Y-100939168D01*
X144434104Y-101044786D01*
X144827962Y-101074129D01*
X145219978Y-101026072D01*
X145595086Y-100902458D01*
X145859111Y-100761334D01*
X145999477Y-100459082D01*
X148640523Y-100459082D01*
X148780889Y-100761334D01*
X149133538Y-100939168D01*
X149514104Y-101044786D01*
X149907962Y-101074129D01*
X150299978Y-101026072D01*
X150675086Y-100902458D01*
X150939111Y-100761334D01*
X151079477Y-100459082D01*
X149860000Y-99239605D01*
X148640523Y-100459082D01*
X145999477Y-100459082D01*
X144780000Y-99239605D01*
X143560523Y-100459082D01*
X75590000Y-100459082D01*
X75590000Y-99107962D01*
X142765871Y-99107962D01*
X142813928Y-99499978D01*
X142937542Y-99875086D01*
X143078666Y-100139111D01*
X143380918Y-100279477D01*
X144600395Y-99060000D01*
X143380918Y-97840523D01*
X143078666Y-97980889D01*
X142900832Y-98333538D01*
X142795214Y-98714104D01*
X142765871Y-99107962D01*
X75590000Y-99107962D01*
X75590000Y-95668367D01*
X135244700Y-95668367D01*
X135244700Y-95873033D01*
X135284628Y-96073765D01*
X135348473Y-96227900D01*
X135284628Y-96382035D01*
X135244700Y-96582767D01*
X135244700Y-96787433D01*
X135284628Y-96988165D01*
X135362950Y-97177251D01*
X135476656Y-97347424D01*
X135621376Y-97492144D01*
X135791549Y-97605850D01*
X135980635Y-97684172D01*
X136181367Y-97724100D01*
X136386033Y-97724100D01*
X136586765Y-97684172D01*
X136775851Y-97605850D01*
X136946024Y-97492144D01*
X137090744Y-97347424D01*
X137204450Y-97177251D01*
X137282772Y-96988165D01*
X137322700Y-96787433D01*
X137322700Y-96582767D01*
X137282772Y-96382035D01*
X137218927Y-96227900D01*
X137282772Y-96073765D01*
X137322700Y-95873033D01*
X137322700Y-95668367D01*
X137282772Y-95467635D01*
X137246093Y-95379082D01*
X143560523Y-95379082D01*
X143700889Y-95681334D01*
X144053538Y-95859168D01*
X144434104Y-95964786D01*
X144827962Y-95994129D01*
X145219978Y-95946072D01*
X145595086Y-95822458D01*
X145741820Y-95744027D01*
X145632443Y-96008085D01*
X145565000Y-96347148D01*
X145565000Y-96692852D01*
X145632443Y-97031915D01*
X145743676Y-97300455D01*
X145506462Y-97180832D01*
X145125896Y-97075214D01*
X144732038Y-97045871D01*
X144340022Y-97093928D01*
X143964914Y-97217542D01*
X143700889Y-97358666D01*
X143560523Y-97660918D01*
X144780000Y-98880395D01*
X144794143Y-98866253D01*
X144973748Y-99045858D01*
X144959605Y-99060000D01*
X146179082Y-100279477D01*
X146481334Y-100139111D01*
X146659168Y-99786462D01*
X146764786Y-99405896D01*
X146794129Y-99012038D01*
X146746072Y-98620022D01*
X146622458Y-98244914D01*
X146544027Y-98098180D01*
X146808085Y-98207557D01*
X147147148Y-98275000D01*
X147492852Y-98275000D01*
X147831915Y-98207557D01*
X148100455Y-98096324D01*
X147980832Y-98333538D01*
X147875214Y-98714104D01*
X147845871Y-99107962D01*
X147893928Y-99499978D01*
X148017542Y-99875086D01*
X148158666Y-100139111D01*
X148460918Y-100279477D01*
X149680395Y-99060000D01*
X150039605Y-99060000D01*
X151259082Y-100279477D01*
X151561334Y-100139111D01*
X151739168Y-99786462D01*
X151844786Y-99405896D01*
X151874129Y-99012038D01*
X151826072Y-98620022D01*
X151702458Y-98244914D01*
X151561334Y-97980889D01*
X151259082Y-97840523D01*
X150039605Y-99060000D01*
X149680395Y-99060000D01*
X149666253Y-99045858D01*
X149845858Y-98866253D01*
X149860000Y-98880395D01*
X151079477Y-97660918D01*
X150939111Y-97358666D01*
X150586462Y-97180832D01*
X150205896Y-97075214D01*
X149812038Y-97045871D01*
X149420022Y-97093928D01*
X149044914Y-97217542D01*
X148898180Y-97295973D01*
X149007557Y-97031915D01*
X149075000Y-96692852D01*
X149075000Y-96347148D01*
X149007557Y-96008085D01*
X148896324Y-95739545D01*
X149133538Y-95859168D01*
X149514104Y-95964786D01*
X149907962Y-95994129D01*
X150299978Y-95946072D01*
X150675086Y-95822458D01*
X150939111Y-95681334D01*
X151079477Y-95379082D01*
X149860000Y-94159605D01*
X149845858Y-94173748D01*
X149666253Y-93994143D01*
X149680395Y-93980000D01*
X150039605Y-93980000D01*
X151259082Y-95199477D01*
X151561334Y-95059111D01*
X151739168Y-94706462D01*
X151844786Y-94325896D01*
X151874129Y-93932038D01*
X151826072Y-93540022D01*
X151702458Y-93164914D01*
X151561334Y-92900889D01*
X151259082Y-92760523D01*
X150039605Y-93980000D01*
X149680395Y-93980000D01*
X148460918Y-92760523D01*
X148158666Y-92900889D01*
X147980832Y-93253538D01*
X147875214Y-93634104D01*
X147845871Y-94027962D01*
X147893928Y-94419978D01*
X148017542Y-94795086D01*
X148095973Y-94941820D01*
X147831915Y-94832443D01*
X147492852Y-94765000D01*
X147147148Y-94765000D01*
X146808085Y-94832443D01*
X146539545Y-94943676D01*
X146659168Y-94706462D01*
X146764786Y-94325896D01*
X146794129Y-93932038D01*
X146746072Y-93540022D01*
X146622458Y-93164914D01*
X146481334Y-92900889D01*
X146179082Y-92760523D01*
X144959605Y-93980000D01*
X144973748Y-93994143D01*
X144794143Y-94173748D01*
X144780000Y-94159605D01*
X143560523Y-95379082D01*
X137246093Y-95379082D01*
X137204450Y-95278549D01*
X137090744Y-95108376D01*
X136946024Y-94963656D01*
X136775851Y-94849950D01*
X136586765Y-94771628D01*
X136386033Y-94731700D01*
X136181367Y-94731700D01*
X135980635Y-94771628D01*
X135791549Y-94849950D01*
X135621376Y-94963656D01*
X135476656Y-95108376D01*
X135362950Y-95278549D01*
X135284628Y-95467635D01*
X135244700Y-95668367D01*
X75590000Y-95668367D01*
X75590000Y-93585567D01*
X129402700Y-93585567D01*
X129402700Y-93790233D01*
X129442628Y-93990965D01*
X129506473Y-94145100D01*
X129442628Y-94299235D01*
X129402700Y-94499967D01*
X129402700Y-94704633D01*
X129442628Y-94905365D01*
X129520950Y-95094451D01*
X129634656Y-95264624D01*
X129779376Y-95409344D01*
X129949549Y-95523050D01*
X130138635Y-95601372D01*
X130339367Y-95641300D01*
X130544033Y-95641300D01*
X130744765Y-95601372D01*
X130933851Y-95523050D01*
X131104024Y-95409344D01*
X131248744Y-95264624D01*
X131362450Y-95094451D01*
X131440772Y-94905365D01*
X131480700Y-94704633D01*
X131480700Y-94499967D01*
X131440772Y-94299235D01*
X131376927Y-94145100D01*
X131425447Y-94027962D01*
X142765871Y-94027962D01*
X142813928Y-94419978D01*
X142937542Y-94795086D01*
X143078666Y-95059111D01*
X143380918Y-95199477D01*
X144600395Y-93980000D01*
X143380918Y-92760523D01*
X143078666Y-92900889D01*
X142900832Y-93253538D01*
X142795214Y-93634104D01*
X142765871Y-94027962D01*
X131425447Y-94027962D01*
X131440772Y-93990965D01*
X131480700Y-93790233D01*
X131480700Y-93585567D01*
X131440772Y-93384835D01*
X131362450Y-93195749D01*
X131248744Y-93025576D01*
X131104024Y-92880856D01*
X130933851Y-92767150D01*
X130744765Y-92688828D01*
X130544033Y-92648900D01*
X130339367Y-92648900D01*
X130138635Y-92688828D01*
X129949549Y-92767150D01*
X129779376Y-92880856D01*
X129634656Y-93025576D01*
X129520950Y-93195749D01*
X129442628Y-93384835D01*
X129402700Y-93585567D01*
X75590000Y-93585567D01*
X75590000Y-92580918D01*
X143560523Y-92580918D01*
X144780000Y-93800395D01*
X145999477Y-92580918D01*
X148640523Y-92580918D01*
X149860000Y-93800395D01*
X151079477Y-92580918D01*
X150939111Y-92278666D01*
X150586462Y-92100832D01*
X150205896Y-91995214D01*
X149812038Y-91965871D01*
X149420022Y-92013928D01*
X149044914Y-92137542D01*
X148780889Y-92278666D01*
X148640523Y-92580918D01*
X145999477Y-92580918D01*
X145859111Y-92278666D01*
X145506462Y-92100832D01*
X145125896Y-91995214D01*
X144732038Y-91965871D01*
X144340022Y-92013928D01*
X143964914Y-92137542D01*
X143700889Y-92278666D01*
X143560523Y-92580918D01*
X75590000Y-92580918D01*
X75590000Y-81700000D01*
X81061928Y-81700000D01*
X81061928Y-83400000D01*
X81074188Y-83524482D01*
X81110498Y-83644180D01*
X81169463Y-83754494D01*
X81248815Y-83851185D01*
X81345506Y-83930537D01*
X81455820Y-83989502D01*
X81575518Y-84025812D01*
X81700000Y-84038072D01*
X83400000Y-84038072D01*
X83524482Y-84025812D01*
X83644180Y-83989502D01*
X83754494Y-83930537D01*
X83851185Y-83851185D01*
X83930537Y-83754494D01*
X83989502Y-83644180D01*
X84025812Y-83524482D01*
X84038072Y-83400000D01*
X84038072Y-81700000D01*
X84025812Y-81575518D01*
X83989502Y-81455820D01*
X83930537Y-81345506D01*
X83851185Y-81248815D01*
X83754494Y-81169463D01*
X83750680Y-81167424D01*
X125857000Y-81167424D01*
X125857000Y-81392576D01*
X125900925Y-81613401D01*
X125987087Y-81821413D01*
X126049619Y-81915000D01*
X125987087Y-82008587D01*
X125900925Y-82216599D01*
X125857000Y-82437424D01*
X125857000Y-82662576D01*
X125900925Y-82883401D01*
X125987087Y-83091413D01*
X126049619Y-83185000D01*
X125987087Y-83278587D01*
X125900925Y-83486599D01*
X125857000Y-83707424D01*
X125857000Y-83932576D01*
X125900925Y-84153401D01*
X125987087Y-84361413D01*
X126049619Y-84455000D01*
X125987087Y-84548587D01*
X125900925Y-84756599D01*
X125857000Y-84977424D01*
X125857000Y-85202576D01*
X125900925Y-85423401D01*
X125987087Y-85631413D01*
X126049619Y-85725000D01*
X125987087Y-85818587D01*
X125900925Y-86026599D01*
X125857000Y-86247424D01*
X125857000Y-86472576D01*
X125900925Y-86693401D01*
X125987087Y-86901413D01*
X126112174Y-87088620D01*
X126271380Y-87247826D01*
X126458587Y-87372913D01*
X126666599Y-87459075D01*
X126887424Y-87503000D01*
X127112576Y-87503000D01*
X127333401Y-87459075D01*
X127541413Y-87372913D01*
X127728620Y-87247826D01*
X127887826Y-87088620D01*
X128012913Y-86901413D01*
X128099075Y-86693401D01*
X128143000Y-86472576D01*
X128143000Y-86247424D01*
X128099075Y-86026599D01*
X128012913Y-85818587D01*
X127950381Y-85725000D01*
X128012913Y-85631413D01*
X128099075Y-85423401D01*
X128143000Y-85202576D01*
X128143000Y-84977424D01*
X128099075Y-84756599D01*
X128012913Y-84548587D01*
X127950381Y-84455000D01*
X128012913Y-84361413D01*
X128099075Y-84153401D01*
X128143000Y-83932576D01*
X128143000Y-83707424D01*
X128099075Y-83486599D01*
X128012913Y-83278587D01*
X127950381Y-83185000D01*
X128012913Y-83091413D01*
X128063204Y-82970000D01*
X155991928Y-82970000D01*
X155991928Y-84670000D01*
X156004188Y-84794482D01*
X156040498Y-84914180D01*
X156099463Y-85024494D01*
X156178815Y-85121185D01*
X156275506Y-85200537D01*
X156385820Y-85259502D01*
X156458380Y-85281513D01*
X156326525Y-85413368D01*
X156164010Y-85656589D01*
X156052068Y-85926842D01*
X155995000Y-86213740D01*
X155995000Y-86506260D01*
X156052068Y-86793158D01*
X156164010Y-87063411D01*
X156326525Y-87306632D01*
X156533368Y-87513475D01*
X156776589Y-87675990D01*
X157046842Y-87787932D01*
X157333740Y-87845000D01*
X157626260Y-87845000D01*
X157913158Y-87787932D01*
X158183411Y-87675990D01*
X158426632Y-87513475D01*
X158633475Y-87306632D01*
X158795990Y-87063411D01*
X158907932Y-86793158D01*
X158965000Y-86506260D01*
X158965000Y-86213740D01*
X158907932Y-85926842D01*
X158795990Y-85656589D01*
X158633475Y-85413368D01*
X158501620Y-85281513D01*
X158574180Y-85259502D01*
X158684494Y-85200537D01*
X158781185Y-85121185D01*
X158860537Y-85024494D01*
X158919502Y-84914180D01*
X158955812Y-84794482D01*
X158968072Y-84670000D01*
X158968072Y-82970000D01*
X158955812Y-82845518D01*
X158919502Y-82725820D01*
X158860537Y-82615506D01*
X158781185Y-82518815D01*
X158684494Y-82439463D01*
X158574180Y-82380498D01*
X158454482Y-82344188D01*
X158330000Y-82331928D01*
X156630000Y-82331928D01*
X156505518Y-82344188D01*
X156385820Y-82380498D01*
X156275506Y-82439463D01*
X156178815Y-82518815D01*
X156099463Y-82615506D01*
X156040498Y-82725820D01*
X156004188Y-82845518D01*
X155991928Y-82970000D01*
X128063204Y-82970000D01*
X128099075Y-82883401D01*
X128143000Y-82662576D01*
X128143000Y-82437424D01*
X128099075Y-82216599D01*
X128012913Y-82008587D01*
X127950381Y-81915000D01*
X128012913Y-81821413D01*
X128099075Y-81613401D01*
X128143000Y-81392576D01*
X128143000Y-81167424D01*
X128099075Y-80946599D01*
X128012913Y-80738587D01*
X127887826Y-80551380D01*
X127728620Y-80392174D01*
X127541413Y-80267087D01*
X127333401Y-80180925D01*
X127112576Y-80137000D01*
X126887424Y-80137000D01*
X126666599Y-80180925D01*
X126458587Y-80267087D01*
X126271380Y-80392174D01*
X126112174Y-80551380D01*
X125987087Y-80738587D01*
X125900925Y-80946599D01*
X125857000Y-81167424D01*
X83750680Y-81167424D01*
X83644180Y-81110498D01*
X83571620Y-81088487D01*
X83703475Y-80956632D01*
X83865990Y-80713411D01*
X83977932Y-80443158D01*
X84035000Y-80156260D01*
X84035000Y-79863740D01*
X83977932Y-79576842D01*
X83865990Y-79306589D01*
X83703475Y-79063368D01*
X83496632Y-78856525D01*
X83322240Y-78740000D01*
X83496632Y-78623475D01*
X83703475Y-78416632D01*
X83865990Y-78173411D01*
X83977932Y-77903158D01*
X84035000Y-77616260D01*
X84035000Y-77323740D01*
X83977932Y-77036842D01*
X83865990Y-76766589D01*
X83703475Y-76523368D01*
X83509189Y-76329082D01*
X151180523Y-76329082D01*
X151320889Y-76631334D01*
X151673538Y-76809168D01*
X152054104Y-76914786D01*
X152447962Y-76944129D01*
X152839978Y-76896072D01*
X153215086Y-76772458D01*
X153479111Y-76631334D01*
X153619477Y-76329082D01*
X156260523Y-76329082D01*
X156400889Y-76631334D01*
X156753538Y-76809168D01*
X157134104Y-76914786D01*
X157527962Y-76944129D01*
X157919978Y-76896072D01*
X158295086Y-76772458D01*
X158559111Y-76631334D01*
X158699477Y-76329082D01*
X157480000Y-75109605D01*
X156260523Y-76329082D01*
X153619477Y-76329082D01*
X152400000Y-75109605D01*
X151180523Y-76329082D01*
X83509189Y-76329082D01*
X83496632Y-76316525D01*
X83314466Y-76194805D01*
X83431355Y-76125178D01*
X83647588Y-75930269D01*
X83821641Y-75696920D01*
X83946825Y-75434099D01*
X83991476Y-75286890D01*
X83870155Y-75057000D01*
X82677000Y-75057000D01*
X82677000Y-75077000D01*
X82423000Y-75077000D01*
X82423000Y-75057000D01*
X81229845Y-75057000D01*
X81108524Y-75286890D01*
X81153175Y-75434099D01*
X81278359Y-75696920D01*
X81452412Y-75930269D01*
X81668645Y-76125178D01*
X81785534Y-76194805D01*
X81603368Y-76316525D01*
X81396525Y-76523368D01*
X81234010Y-76766589D01*
X81122068Y-77036842D01*
X81065000Y-77323740D01*
X81065000Y-77616260D01*
X81122068Y-77903158D01*
X81234010Y-78173411D01*
X81396525Y-78416632D01*
X81603368Y-78623475D01*
X81777760Y-78740000D01*
X81603368Y-78856525D01*
X81396525Y-79063368D01*
X81234010Y-79306589D01*
X81122068Y-79576842D01*
X81065000Y-79863740D01*
X81065000Y-80156260D01*
X81122068Y-80443158D01*
X81234010Y-80713411D01*
X81396525Y-80956632D01*
X81528380Y-81088487D01*
X81455820Y-81110498D01*
X81345506Y-81169463D01*
X81248815Y-81248815D01*
X81169463Y-81345506D01*
X81110498Y-81455820D01*
X81074188Y-81575518D01*
X81061928Y-81700000D01*
X75590000Y-81700000D01*
X75590000Y-74977962D01*
X150385871Y-74977962D01*
X150433928Y-75369978D01*
X150557542Y-75745086D01*
X150698666Y-76009111D01*
X151000918Y-76149477D01*
X152220395Y-74930000D01*
X151000918Y-73710523D01*
X150698666Y-73850889D01*
X150520832Y-74203538D01*
X150415214Y-74584104D01*
X150385871Y-74977962D01*
X75590000Y-74977962D01*
X75590000Y-72243740D01*
X81065000Y-72243740D01*
X81065000Y-72536260D01*
X81122068Y-72823158D01*
X81234010Y-73093411D01*
X81396525Y-73336632D01*
X81603368Y-73543475D01*
X81785534Y-73665195D01*
X81668645Y-73734822D01*
X81452412Y-73929731D01*
X81278359Y-74163080D01*
X81153175Y-74425901D01*
X81108524Y-74573110D01*
X81229845Y-74803000D01*
X82423000Y-74803000D01*
X82423000Y-74783000D01*
X82677000Y-74783000D01*
X82677000Y-74803000D01*
X83870155Y-74803000D01*
X83991476Y-74573110D01*
X83946825Y-74425901D01*
X83821641Y-74163080D01*
X83647588Y-73929731D01*
X83431355Y-73734822D01*
X83314466Y-73665195D01*
X83496632Y-73543475D01*
X83703475Y-73336632D01*
X83865990Y-73093411D01*
X83977932Y-72823158D01*
X84035000Y-72536260D01*
X84035000Y-72243740D01*
X83977932Y-71956842D01*
X83865990Y-71686589D01*
X83703475Y-71443368D01*
X83509189Y-71249082D01*
X151180523Y-71249082D01*
X151320889Y-71551334D01*
X151673538Y-71729168D01*
X152054104Y-71834786D01*
X152447962Y-71864129D01*
X152839978Y-71816072D01*
X153215086Y-71692458D01*
X153361820Y-71614027D01*
X153252443Y-71878085D01*
X153185000Y-72217148D01*
X153185000Y-72562852D01*
X153252443Y-72901915D01*
X153363676Y-73170455D01*
X153126462Y-73050832D01*
X152745896Y-72945214D01*
X152352038Y-72915871D01*
X151960022Y-72963928D01*
X151584914Y-73087542D01*
X151320889Y-73228666D01*
X151180523Y-73530918D01*
X152400000Y-74750395D01*
X152414143Y-74736253D01*
X152593748Y-74915858D01*
X152579605Y-74930000D01*
X153799082Y-76149477D01*
X154101334Y-76009111D01*
X154279168Y-75656462D01*
X154384786Y-75275896D01*
X154414129Y-74882038D01*
X154366072Y-74490022D01*
X154242458Y-74114914D01*
X154164027Y-73968180D01*
X154428085Y-74077557D01*
X154767148Y-74145000D01*
X155112852Y-74145000D01*
X155451915Y-74077557D01*
X155720455Y-73966324D01*
X155600832Y-74203538D01*
X155495214Y-74584104D01*
X155465871Y-74977962D01*
X155513928Y-75369978D01*
X155637542Y-75745086D01*
X155778666Y-76009111D01*
X156080918Y-76149477D01*
X157300395Y-74930000D01*
X157659605Y-74930000D01*
X158879082Y-76149477D01*
X159181334Y-76009111D01*
X159359168Y-75656462D01*
X159464786Y-75275896D01*
X159494129Y-74882038D01*
X159446072Y-74490022D01*
X159322458Y-74114914D01*
X159181334Y-73850889D01*
X158879082Y-73710523D01*
X157659605Y-74930000D01*
X157300395Y-74930000D01*
X157286253Y-74915858D01*
X157465858Y-74736253D01*
X157480000Y-74750395D01*
X158699477Y-73530918D01*
X158559111Y-73228666D01*
X158206462Y-73050832D01*
X157825896Y-72945214D01*
X157432038Y-72915871D01*
X157040022Y-72963928D01*
X156664914Y-73087542D01*
X156518180Y-73165973D01*
X156627557Y-72901915D01*
X156695000Y-72562852D01*
X156695000Y-72217148D01*
X156627557Y-71878085D01*
X156516324Y-71609545D01*
X156753538Y-71729168D01*
X157134104Y-71834786D01*
X157527962Y-71864129D01*
X157919978Y-71816072D01*
X158295086Y-71692458D01*
X158559111Y-71551334D01*
X158699477Y-71249082D01*
X157480000Y-70029605D01*
X157465858Y-70043748D01*
X157286253Y-69864143D01*
X157300395Y-69850000D01*
X157659605Y-69850000D01*
X158879082Y-71069477D01*
X159181334Y-70929111D01*
X159359168Y-70576462D01*
X159464786Y-70195896D01*
X159494129Y-69802038D01*
X159446072Y-69410022D01*
X159322458Y-69034914D01*
X159181334Y-68770889D01*
X158879082Y-68630523D01*
X157659605Y-69850000D01*
X157300395Y-69850000D01*
X156080918Y-68630523D01*
X155778666Y-68770889D01*
X155600832Y-69123538D01*
X155495214Y-69504104D01*
X155465871Y-69897962D01*
X155513928Y-70289978D01*
X155637542Y-70665086D01*
X155715973Y-70811820D01*
X155451915Y-70702443D01*
X155112852Y-70635000D01*
X154767148Y-70635000D01*
X154428085Y-70702443D01*
X154159545Y-70813676D01*
X154279168Y-70576462D01*
X154384786Y-70195896D01*
X154414129Y-69802038D01*
X154366072Y-69410022D01*
X154242458Y-69034914D01*
X154101334Y-68770889D01*
X153799082Y-68630523D01*
X152579605Y-69850000D01*
X152593748Y-69864143D01*
X152414143Y-70043748D01*
X152400000Y-70029605D01*
X151180523Y-71249082D01*
X83509189Y-71249082D01*
X83496632Y-71236525D01*
X83253411Y-71074010D01*
X82983158Y-70962068D01*
X82696260Y-70905000D01*
X82403740Y-70905000D01*
X82116842Y-70962068D01*
X81846589Y-71074010D01*
X81603368Y-71236525D01*
X81396525Y-71443368D01*
X81234010Y-71686589D01*
X81122068Y-71956842D01*
X81065000Y-72243740D01*
X75590000Y-72243740D01*
X75590000Y-69897962D01*
X150385871Y-69897962D01*
X150433928Y-70289978D01*
X150557542Y-70665086D01*
X150698666Y-70929111D01*
X151000918Y-71069477D01*
X152220395Y-69850000D01*
X151000918Y-68630523D01*
X150698666Y-68770889D01*
X150520832Y-69123538D01*
X150415214Y-69504104D01*
X150385871Y-69897962D01*
X75590000Y-69897962D01*
X75590000Y-68217587D01*
X109344407Y-68217587D01*
X109382434Y-68439504D01*
X109463024Y-68649738D01*
X109491869Y-68703704D01*
X109706103Y-68739792D01*
X110310395Y-68135500D01*
X109706103Y-67531208D01*
X109491869Y-67567296D01*
X109400197Y-67772939D01*
X109350405Y-67992516D01*
X109344407Y-68217587D01*
X75590000Y-68217587D01*
X75590000Y-67351603D01*
X109885708Y-67351603D01*
X109894905Y-67360800D01*
X109885708Y-67369997D01*
X109921796Y-67584231D01*
X110127439Y-67675903D01*
X110234223Y-67700118D01*
X110490000Y-67955895D01*
X110504143Y-67941753D01*
X110618705Y-68056315D01*
X110614407Y-68217587D01*
X110614611Y-68218779D01*
X110504143Y-68329248D01*
X110490000Y-68315105D01*
X109885708Y-68919397D01*
X109921796Y-69133631D01*
X110127439Y-69225303D01*
X110347016Y-69275095D01*
X110572087Y-69281093D01*
X110794004Y-69243066D01*
X111004238Y-69162476D01*
X111058204Y-69133631D01*
X111081850Y-68993258D01*
X111125000Y-68950108D01*
X111168150Y-68993258D01*
X111191796Y-69133631D01*
X111397439Y-69225303D01*
X111617016Y-69275095D01*
X111842087Y-69281093D01*
X112064004Y-69243066D01*
X112274238Y-69162476D01*
X112328204Y-69133631D01*
X112351850Y-68993258D01*
X112395000Y-68950108D01*
X112438150Y-68993258D01*
X112461796Y-69133631D01*
X112667439Y-69225303D01*
X112887016Y-69275095D01*
X113112087Y-69281093D01*
X113334004Y-69243066D01*
X113544238Y-69162476D01*
X113598204Y-69133631D01*
X113634292Y-68919397D01*
X113030000Y-68315105D01*
X113015858Y-68329248D01*
X112901295Y-68214685D01*
X112903405Y-68135500D01*
X113209605Y-68135500D01*
X113813897Y-68739792D01*
X114028131Y-68703704D01*
X114119803Y-68498061D01*
X114169595Y-68278484D01*
X114175593Y-68053413D01*
X114137566Y-67831496D01*
X114056976Y-67621262D01*
X114028131Y-67567296D01*
X113813897Y-67531208D01*
X113209605Y-68135500D01*
X112903405Y-68135500D01*
X112905593Y-68053413D01*
X112905389Y-68052221D01*
X113015858Y-67941753D01*
X113030000Y-67955895D01*
X113283590Y-67702305D01*
X113334004Y-67693666D01*
X113544238Y-67613076D01*
X113598204Y-67584231D01*
X113634292Y-67369997D01*
X113625095Y-67360800D01*
X113634292Y-67351603D01*
X113598204Y-67137369D01*
X113392561Y-67045697D01*
X113285777Y-67021482D01*
X113030000Y-66765705D01*
X113015858Y-66779848D01*
X112836253Y-66600243D01*
X112850395Y-66586100D01*
X113209605Y-66586100D01*
X113813897Y-67190392D01*
X114028131Y-67154304D01*
X114119803Y-66948661D01*
X114169595Y-66729084D01*
X114173424Y-66585367D01*
X127599300Y-66585367D01*
X127599300Y-66790033D01*
X127639228Y-66990765D01*
X127703073Y-67144900D01*
X127639228Y-67299035D01*
X127599300Y-67499767D01*
X127599300Y-67704433D01*
X127639228Y-67905165D01*
X127717550Y-68094251D01*
X127831256Y-68264424D01*
X127975976Y-68409144D01*
X128146149Y-68522850D01*
X128335235Y-68601172D01*
X128535967Y-68641100D01*
X128740633Y-68641100D01*
X128941365Y-68601172D01*
X129130451Y-68522850D01*
X129238104Y-68450918D01*
X151180523Y-68450918D01*
X152400000Y-69670395D01*
X153619477Y-68450918D01*
X156260523Y-68450918D01*
X157480000Y-69670395D01*
X158699477Y-68450918D01*
X158559111Y-68148666D01*
X158206462Y-67970832D01*
X157825896Y-67865214D01*
X157432038Y-67835871D01*
X157040022Y-67883928D01*
X156664914Y-68007542D01*
X156400889Y-68148666D01*
X156260523Y-68450918D01*
X153619477Y-68450918D01*
X153479111Y-68148666D01*
X153126462Y-67970832D01*
X152745896Y-67865214D01*
X152352038Y-67835871D01*
X151960022Y-67883928D01*
X151584914Y-68007542D01*
X151320889Y-68148666D01*
X151180523Y-68450918D01*
X129238104Y-68450918D01*
X129300624Y-68409144D01*
X129445344Y-68264424D01*
X129559050Y-68094251D01*
X129637372Y-67905165D01*
X129677300Y-67704433D01*
X129677300Y-67499767D01*
X129637372Y-67299035D01*
X129573527Y-67144900D01*
X129637372Y-66990765D01*
X129677300Y-66790033D01*
X129677300Y-66585367D01*
X129637372Y-66384635D01*
X129559050Y-66195549D01*
X129445344Y-66025376D01*
X129300624Y-65880656D01*
X129130451Y-65766950D01*
X128941365Y-65688628D01*
X128740633Y-65648700D01*
X128535967Y-65648700D01*
X128335235Y-65688628D01*
X128146149Y-65766950D01*
X127975976Y-65880656D01*
X127831256Y-66025376D01*
X127717550Y-66195549D01*
X127639228Y-66384635D01*
X127599300Y-66585367D01*
X114173424Y-66585367D01*
X114175593Y-66504013D01*
X114137566Y-66282096D01*
X114056976Y-66071862D01*
X114028131Y-66017896D01*
X113813897Y-65981808D01*
X113209605Y-66586100D01*
X112850395Y-66586100D01*
X112246103Y-65981808D01*
X112170019Y-65994624D01*
X111760000Y-65584605D01*
X111349981Y-65994624D01*
X111273897Y-65981808D01*
X110669605Y-66586100D01*
X110683748Y-66600243D01*
X110504143Y-66779848D01*
X110490000Y-66765705D01*
X110236410Y-67019295D01*
X110185996Y-67027934D01*
X109975762Y-67108524D01*
X109921796Y-67137369D01*
X109885708Y-67351603D01*
X75590000Y-67351603D01*
X75590000Y-66668187D01*
X109344407Y-66668187D01*
X109382434Y-66890104D01*
X109463024Y-67100338D01*
X109491869Y-67154304D01*
X109706103Y-67190392D01*
X110310395Y-66586100D01*
X109706103Y-65981808D01*
X109491869Y-66017896D01*
X109400197Y-66223539D01*
X109350405Y-66443116D01*
X109344407Y-66668187D01*
X75590000Y-66668187D01*
X75590000Y-65802203D01*
X109885708Y-65802203D01*
X110490000Y-66406495D01*
X110986524Y-65909971D01*
X111067204Y-65918191D01*
X111580395Y-65405000D01*
X111939605Y-65405000D01*
X112452796Y-65918191D01*
X112533476Y-65909971D01*
X113030000Y-66406495D01*
X113634292Y-65802203D01*
X113598204Y-65587969D01*
X113392561Y-65496297D01*
X113172984Y-65446505D01*
X112947913Y-65440507D01*
X112775254Y-65470093D01*
X112777191Y-65317867D01*
X112740648Y-65121097D01*
X112666418Y-64935238D01*
X112654171Y-64912327D01*
X112452796Y-64891809D01*
X111939605Y-65405000D01*
X111580395Y-65405000D01*
X111067204Y-64891809D01*
X110865829Y-64912327D01*
X110786894Y-65096238D01*
X110745356Y-65292014D01*
X110743072Y-65471469D01*
X110632984Y-65446505D01*
X110407913Y-65440507D01*
X110185996Y-65478534D01*
X109975762Y-65559124D01*
X109921796Y-65587969D01*
X109885708Y-65802203D01*
X75590000Y-65802203D01*
X75590000Y-64712204D01*
X111246809Y-64712204D01*
X111304605Y-64770000D01*
X111246809Y-64827796D01*
X111267327Y-65029171D01*
X111451238Y-65108106D01*
X111647014Y-65149644D01*
X111684729Y-65150124D01*
X111760000Y-65225395D01*
X111833379Y-65152016D01*
X111847133Y-65152191D01*
X112043903Y-65115648D01*
X112229762Y-65041418D01*
X112252673Y-65029171D01*
X112273191Y-64827796D01*
X112215395Y-64770000D01*
X112273191Y-64712204D01*
X112252673Y-64510829D01*
X112068762Y-64431894D01*
X111872986Y-64390356D01*
X111835271Y-64389876D01*
X111760000Y-64314605D01*
X111686621Y-64387984D01*
X111672867Y-64387809D01*
X111476097Y-64424352D01*
X111290238Y-64498582D01*
X111267327Y-64510829D01*
X111246809Y-64712204D01*
X75590000Y-64712204D01*
X75590000Y-63737797D01*
X109885708Y-63737797D01*
X109921796Y-63952031D01*
X110127439Y-64043703D01*
X110347016Y-64093495D01*
X110572087Y-64099493D01*
X110744746Y-64069907D01*
X110742809Y-64222133D01*
X110779352Y-64418903D01*
X110853582Y-64604762D01*
X110865829Y-64627673D01*
X111067204Y-64648191D01*
X111580395Y-64135000D01*
X111939605Y-64135000D01*
X112452796Y-64648191D01*
X112654171Y-64627673D01*
X112707866Y-64502567D01*
X121757300Y-64502567D01*
X121757300Y-64707233D01*
X121797228Y-64907965D01*
X121861073Y-65062100D01*
X121797228Y-65216235D01*
X121757300Y-65416967D01*
X121757300Y-65621633D01*
X121797228Y-65822365D01*
X121875550Y-66011451D01*
X121989256Y-66181624D01*
X122133976Y-66326344D01*
X122304149Y-66440050D01*
X122493235Y-66518372D01*
X122693967Y-66558300D01*
X122898633Y-66558300D01*
X123099365Y-66518372D01*
X123288451Y-66440050D01*
X123458624Y-66326344D01*
X123603344Y-66181624D01*
X123717050Y-66011451D01*
X123795372Y-65822365D01*
X123835300Y-65621633D01*
X123835300Y-65416967D01*
X123795372Y-65216235D01*
X123731527Y-65062100D01*
X123795372Y-64907965D01*
X123835300Y-64707233D01*
X123835300Y-64502567D01*
X123795372Y-64301835D01*
X123717050Y-64112749D01*
X123603344Y-63942576D01*
X123458624Y-63797856D01*
X123288451Y-63684150D01*
X123099365Y-63605828D01*
X122898633Y-63565900D01*
X122693967Y-63565900D01*
X122493235Y-63605828D01*
X122304149Y-63684150D01*
X122133976Y-63797856D01*
X121989256Y-63942576D01*
X121875550Y-64112749D01*
X121797228Y-64301835D01*
X121757300Y-64502567D01*
X112707866Y-64502567D01*
X112733106Y-64443762D01*
X112774644Y-64247986D01*
X112776928Y-64068531D01*
X112887016Y-64093495D01*
X113112087Y-64099493D01*
X113334004Y-64061466D01*
X113544238Y-63980876D01*
X113598204Y-63952031D01*
X113634292Y-63737797D01*
X113030000Y-63133505D01*
X112533476Y-63630029D01*
X112452796Y-63621809D01*
X111939605Y-64135000D01*
X111580395Y-64135000D01*
X111067204Y-63621809D01*
X110986524Y-63630029D01*
X110490000Y-63133505D01*
X109885708Y-63737797D01*
X75590000Y-63737797D01*
X75590000Y-63035987D01*
X109344407Y-63035987D01*
X109382434Y-63257904D01*
X109463024Y-63468138D01*
X109491869Y-63522104D01*
X109706103Y-63558192D01*
X110310395Y-62953900D01*
X109706103Y-62349608D01*
X109491869Y-62385696D01*
X109400197Y-62591339D01*
X109350405Y-62810916D01*
X109344407Y-63035987D01*
X75590000Y-63035987D01*
X75590000Y-61486587D01*
X109344407Y-61486587D01*
X109382434Y-61708504D01*
X109463024Y-61918738D01*
X109491869Y-61972704D01*
X109706103Y-62008792D01*
X110310395Y-61404500D01*
X109706103Y-60800208D01*
X109491869Y-60836296D01*
X109400197Y-61041939D01*
X109350405Y-61261516D01*
X109344407Y-61486587D01*
X75590000Y-61486587D01*
X75590000Y-60620603D01*
X109885708Y-60620603D01*
X110490000Y-61224895D01*
X110504143Y-61210753D01*
X110618705Y-61325315D01*
X110614407Y-61486587D01*
X110614611Y-61487779D01*
X110504143Y-61598248D01*
X110490000Y-61584105D01*
X110236410Y-61837695D01*
X110185996Y-61846334D01*
X109975762Y-61926924D01*
X109921796Y-61955769D01*
X109885708Y-62170003D01*
X109894905Y-62179200D01*
X109885708Y-62188397D01*
X109921796Y-62402631D01*
X110127439Y-62494303D01*
X110234223Y-62518518D01*
X110490000Y-62774295D01*
X110504143Y-62760153D01*
X110683748Y-62939758D01*
X110669605Y-62953900D01*
X111273897Y-63558192D01*
X111349981Y-63545376D01*
X111760000Y-63955395D01*
X112170019Y-63545376D01*
X112246103Y-63558192D01*
X112850395Y-62953900D01*
X113209605Y-62953900D01*
X113813897Y-63558192D01*
X114028131Y-63522104D01*
X114119803Y-63316461D01*
X114169595Y-63096884D01*
X114175593Y-62871813D01*
X114137566Y-62649896D01*
X114056976Y-62439662D01*
X114028131Y-62385696D01*
X113813897Y-62349608D01*
X113209605Y-62953900D01*
X112850395Y-62953900D01*
X112836253Y-62939758D01*
X113015858Y-62760153D01*
X113030000Y-62774295D01*
X113283590Y-62520705D01*
X113334004Y-62512066D01*
X113544238Y-62431476D01*
X113598204Y-62402631D01*
X113634292Y-62188397D01*
X113625095Y-62179200D01*
X113634292Y-62170003D01*
X113598204Y-61955769D01*
X113392561Y-61864097D01*
X113285777Y-61839882D01*
X113030000Y-61584105D01*
X113015858Y-61598248D01*
X112901295Y-61483685D01*
X112903405Y-61404500D01*
X113209605Y-61404500D01*
X113813897Y-62008792D01*
X114028131Y-61972704D01*
X114119803Y-61767061D01*
X114169595Y-61547484D01*
X114175593Y-61322413D01*
X114137566Y-61100496D01*
X114056976Y-60890262D01*
X114028131Y-60836296D01*
X113813897Y-60800208D01*
X113209605Y-61404500D01*
X112903405Y-61404500D01*
X112905593Y-61322413D01*
X112905389Y-61321221D01*
X113015858Y-61210753D01*
X113030000Y-61224895D01*
X113634292Y-60620603D01*
X113598204Y-60406369D01*
X113392561Y-60314697D01*
X113172984Y-60264905D01*
X112947913Y-60258907D01*
X112725996Y-60296934D01*
X112515762Y-60377524D01*
X112461796Y-60406369D01*
X112438150Y-60546742D01*
X112395000Y-60589892D01*
X112351850Y-60546742D01*
X112328204Y-60406369D01*
X112122561Y-60314697D01*
X111902984Y-60264905D01*
X111677913Y-60258907D01*
X111455996Y-60296934D01*
X111245762Y-60377524D01*
X111191796Y-60406369D01*
X111168150Y-60546742D01*
X111125000Y-60589892D01*
X111081850Y-60546742D01*
X111058204Y-60406369D01*
X110852561Y-60314697D01*
X110632984Y-60264905D01*
X110407913Y-60258907D01*
X110185996Y-60296934D01*
X109975762Y-60377524D01*
X109921796Y-60406369D01*
X109885708Y-60620603D01*
X75590000Y-60620603D01*
X75590000Y-51460000D01*
X164440001Y-51460000D01*
X164440000Y-103480000D01*
%TA.AperFunction,Conductor*%
D20*
G36*
X164440000Y-103480000D02*
G01*
X75590000Y-103480000D01*
X75590000Y-100459082D01*
X143560523Y-100459082D01*
X143700889Y-100761334D01*
X144053538Y-100939168D01*
X144434104Y-101044786D01*
X144827962Y-101074129D01*
X145219978Y-101026072D01*
X145595086Y-100902458D01*
X145859111Y-100761334D01*
X145999477Y-100459082D01*
X148640523Y-100459082D01*
X148780889Y-100761334D01*
X149133538Y-100939168D01*
X149514104Y-101044786D01*
X149907962Y-101074129D01*
X150299978Y-101026072D01*
X150675086Y-100902458D01*
X150939111Y-100761334D01*
X151079477Y-100459082D01*
X149860000Y-99239605D01*
X148640523Y-100459082D01*
X145999477Y-100459082D01*
X144780000Y-99239605D01*
X143560523Y-100459082D01*
X75590000Y-100459082D01*
X75590000Y-99107962D01*
X142765871Y-99107962D01*
X142813928Y-99499978D01*
X142937542Y-99875086D01*
X143078666Y-100139111D01*
X143380918Y-100279477D01*
X144600395Y-99060000D01*
X143380918Y-97840523D01*
X143078666Y-97980889D01*
X142900832Y-98333538D01*
X142795214Y-98714104D01*
X142765871Y-99107962D01*
X75590000Y-99107962D01*
X75590000Y-95668367D01*
X135244700Y-95668367D01*
X135244700Y-95873033D01*
X135284628Y-96073765D01*
X135348473Y-96227900D01*
X135284628Y-96382035D01*
X135244700Y-96582767D01*
X135244700Y-96787433D01*
X135284628Y-96988165D01*
X135362950Y-97177251D01*
X135476656Y-97347424D01*
X135621376Y-97492144D01*
X135791549Y-97605850D01*
X135980635Y-97684172D01*
X136181367Y-97724100D01*
X136386033Y-97724100D01*
X136586765Y-97684172D01*
X136775851Y-97605850D01*
X136946024Y-97492144D01*
X137090744Y-97347424D01*
X137204450Y-97177251D01*
X137282772Y-96988165D01*
X137322700Y-96787433D01*
X137322700Y-96582767D01*
X137282772Y-96382035D01*
X137218927Y-96227900D01*
X137282772Y-96073765D01*
X137322700Y-95873033D01*
X137322700Y-95668367D01*
X137282772Y-95467635D01*
X137246093Y-95379082D01*
X143560523Y-95379082D01*
X143700889Y-95681334D01*
X144053538Y-95859168D01*
X144434104Y-95964786D01*
X144827962Y-95994129D01*
X145219978Y-95946072D01*
X145595086Y-95822458D01*
X145741820Y-95744027D01*
X145632443Y-96008085D01*
X145565000Y-96347148D01*
X145565000Y-96692852D01*
X145632443Y-97031915D01*
X145743676Y-97300455D01*
X145506462Y-97180832D01*
X145125896Y-97075214D01*
X144732038Y-97045871D01*
X144340022Y-97093928D01*
X143964914Y-97217542D01*
X143700889Y-97358666D01*
X143560523Y-97660918D01*
X144780000Y-98880395D01*
X144794143Y-98866253D01*
X144973748Y-99045858D01*
X144959605Y-99060000D01*
X146179082Y-100279477D01*
X146481334Y-100139111D01*
X146659168Y-99786462D01*
X146764786Y-99405896D01*
X146794129Y-99012038D01*
X146746072Y-98620022D01*
X146622458Y-98244914D01*
X146544027Y-98098180D01*
X146808085Y-98207557D01*
X147147148Y-98275000D01*
X147492852Y-98275000D01*
X147831915Y-98207557D01*
X148100455Y-98096324D01*
X147980832Y-98333538D01*
X147875214Y-98714104D01*
X147845871Y-99107962D01*
X147893928Y-99499978D01*
X148017542Y-99875086D01*
X148158666Y-100139111D01*
X148460918Y-100279477D01*
X149680395Y-99060000D01*
X150039605Y-99060000D01*
X151259082Y-100279477D01*
X151561334Y-100139111D01*
X151739168Y-99786462D01*
X151844786Y-99405896D01*
X151874129Y-99012038D01*
X151826072Y-98620022D01*
X151702458Y-98244914D01*
X151561334Y-97980889D01*
X151259082Y-97840523D01*
X150039605Y-99060000D01*
X149680395Y-99060000D01*
X149666253Y-99045858D01*
X149845858Y-98866253D01*
X149860000Y-98880395D01*
X151079477Y-97660918D01*
X150939111Y-97358666D01*
X150586462Y-97180832D01*
X150205896Y-97075214D01*
X149812038Y-97045871D01*
X149420022Y-97093928D01*
X149044914Y-97217542D01*
X148898180Y-97295973D01*
X149007557Y-97031915D01*
X149075000Y-96692852D01*
X149075000Y-96347148D01*
X149007557Y-96008085D01*
X148896324Y-95739545D01*
X149133538Y-95859168D01*
X149514104Y-95964786D01*
X149907962Y-95994129D01*
X150299978Y-95946072D01*
X150675086Y-95822458D01*
X150939111Y-95681334D01*
X151079477Y-95379082D01*
X149860000Y-94159605D01*
X149845858Y-94173748D01*
X149666253Y-93994143D01*
X149680395Y-93980000D01*
X150039605Y-93980000D01*
X151259082Y-95199477D01*
X151561334Y-95059111D01*
X151739168Y-94706462D01*
X151844786Y-94325896D01*
X151874129Y-93932038D01*
X151826072Y-93540022D01*
X151702458Y-93164914D01*
X151561334Y-92900889D01*
X151259082Y-92760523D01*
X150039605Y-93980000D01*
X149680395Y-93980000D01*
X148460918Y-92760523D01*
X148158666Y-92900889D01*
X147980832Y-93253538D01*
X147875214Y-93634104D01*
X147845871Y-94027962D01*
X147893928Y-94419978D01*
X148017542Y-94795086D01*
X148095973Y-94941820D01*
X147831915Y-94832443D01*
X147492852Y-94765000D01*
X147147148Y-94765000D01*
X146808085Y-94832443D01*
X146539545Y-94943676D01*
X146659168Y-94706462D01*
X146764786Y-94325896D01*
X146794129Y-93932038D01*
X146746072Y-93540022D01*
X146622458Y-93164914D01*
X146481334Y-92900889D01*
X146179082Y-92760523D01*
X144959605Y-93980000D01*
X144973748Y-93994143D01*
X144794143Y-94173748D01*
X144780000Y-94159605D01*
X143560523Y-95379082D01*
X137246093Y-95379082D01*
X137204450Y-95278549D01*
X137090744Y-95108376D01*
X136946024Y-94963656D01*
X136775851Y-94849950D01*
X136586765Y-94771628D01*
X136386033Y-94731700D01*
X136181367Y-94731700D01*
X135980635Y-94771628D01*
X135791549Y-94849950D01*
X135621376Y-94963656D01*
X135476656Y-95108376D01*
X135362950Y-95278549D01*
X135284628Y-95467635D01*
X135244700Y-95668367D01*
X75590000Y-95668367D01*
X75590000Y-93585567D01*
X129402700Y-93585567D01*
X129402700Y-93790233D01*
X129442628Y-93990965D01*
X129506473Y-94145100D01*
X129442628Y-94299235D01*
X129402700Y-94499967D01*
X129402700Y-94704633D01*
X129442628Y-94905365D01*
X129520950Y-95094451D01*
X129634656Y-95264624D01*
X129779376Y-95409344D01*
X129949549Y-95523050D01*
X130138635Y-95601372D01*
X130339367Y-95641300D01*
X130544033Y-95641300D01*
X130744765Y-95601372D01*
X130933851Y-95523050D01*
X131104024Y-95409344D01*
X131248744Y-95264624D01*
X131362450Y-95094451D01*
X131440772Y-94905365D01*
X131480700Y-94704633D01*
X131480700Y-94499967D01*
X131440772Y-94299235D01*
X131376927Y-94145100D01*
X131425447Y-94027962D01*
X142765871Y-94027962D01*
X142813928Y-94419978D01*
X142937542Y-94795086D01*
X143078666Y-95059111D01*
X143380918Y-95199477D01*
X144600395Y-93980000D01*
X143380918Y-92760523D01*
X143078666Y-92900889D01*
X142900832Y-93253538D01*
X142795214Y-93634104D01*
X142765871Y-94027962D01*
X131425447Y-94027962D01*
X131440772Y-93990965D01*
X131480700Y-93790233D01*
X131480700Y-93585567D01*
X131440772Y-93384835D01*
X131362450Y-93195749D01*
X131248744Y-93025576D01*
X131104024Y-92880856D01*
X130933851Y-92767150D01*
X130744765Y-92688828D01*
X130544033Y-92648900D01*
X130339367Y-92648900D01*
X130138635Y-92688828D01*
X129949549Y-92767150D01*
X129779376Y-92880856D01*
X129634656Y-93025576D01*
X129520950Y-93195749D01*
X129442628Y-93384835D01*
X129402700Y-93585567D01*
X75590000Y-93585567D01*
X75590000Y-92580918D01*
X143560523Y-92580918D01*
X144780000Y-93800395D01*
X145999477Y-92580918D01*
X148640523Y-92580918D01*
X149860000Y-93800395D01*
X151079477Y-92580918D01*
X150939111Y-92278666D01*
X150586462Y-92100832D01*
X150205896Y-91995214D01*
X149812038Y-91965871D01*
X149420022Y-92013928D01*
X149044914Y-92137542D01*
X148780889Y-92278666D01*
X148640523Y-92580918D01*
X145999477Y-92580918D01*
X145859111Y-92278666D01*
X145506462Y-92100832D01*
X145125896Y-91995214D01*
X144732038Y-91965871D01*
X144340022Y-92013928D01*
X143964914Y-92137542D01*
X143700889Y-92278666D01*
X143560523Y-92580918D01*
X75590000Y-92580918D01*
X75590000Y-81700000D01*
X81061928Y-81700000D01*
X81061928Y-83400000D01*
X81074188Y-83524482D01*
X81110498Y-83644180D01*
X81169463Y-83754494D01*
X81248815Y-83851185D01*
X81345506Y-83930537D01*
X81455820Y-83989502D01*
X81575518Y-84025812D01*
X81700000Y-84038072D01*
X83400000Y-84038072D01*
X83524482Y-84025812D01*
X83644180Y-83989502D01*
X83754494Y-83930537D01*
X83851185Y-83851185D01*
X83930537Y-83754494D01*
X83989502Y-83644180D01*
X84025812Y-83524482D01*
X84038072Y-83400000D01*
X84038072Y-81700000D01*
X84025812Y-81575518D01*
X83989502Y-81455820D01*
X83930537Y-81345506D01*
X83851185Y-81248815D01*
X83754494Y-81169463D01*
X83750680Y-81167424D01*
X125857000Y-81167424D01*
X125857000Y-81392576D01*
X125900925Y-81613401D01*
X125987087Y-81821413D01*
X126049619Y-81915000D01*
X125987087Y-82008587D01*
X125900925Y-82216599D01*
X125857000Y-82437424D01*
X125857000Y-82662576D01*
X125900925Y-82883401D01*
X125987087Y-83091413D01*
X126049619Y-83185000D01*
X125987087Y-83278587D01*
X125900925Y-83486599D01*
X125857000Y-83707424D01*
X125857000Y-83932576D01*
X125900925Y-84153401D01*
X125987087Y-84361413D01*
X126049619Y-84455000D01*
X125987087Y-84548587D01*
X125900925Y-84756599D01*
X125857000Y-84977424D01*
X125857000Y-85202576D01*
X125900925Y-85423401D01*
X125987087Y-85631413D01*
X126049619Y-85725000D01*
X125987087Y-85818587D01*
X125900925Y-86026599D01*
X125857000Y-86247424D01*
X125857000Y-86472576D01*
X125900925Y-86693401D01*
X125987087Y-86901413D01*
X126112174Y-87088620D01*
X126271380Y-87247826D01*
X126458587Y-87372913D01*
X126666599Y-87459075D01*
X126887424Y-87503000D01*
X127112576Y-87503000D01*
X127333401Y-87459075D01*
X127541413Y-87372913D01*
X127728620Y-87247826D01*
X127887826Y-87088620D01*
X128012913Y-86901413D01*
X128099075Y-86693401D01*
X128143000Y-86472576D01*
X128143000Y-86247424D01*
X128099075Y-86026599D01*
X128012913Y-85818587D01*
X127950381Y-85725000D01*
X128012913Y-85631413D01*
X128099075Y-85423401D01*
X128143000Y-85202576D01*
X128143000Y-84977424D01*
X128099075Y-84756599D01*
X128012913Y-84548587D01*
X127950381Y-84455000D01*
X128012913Y-84361413D01*
X128099075Y-84153401D01*
X128143000Y-83932576D01*
X128143000Y-83707424D01*
X128099075Y-83486599D01*
X128012913Y-83278587D01*
X127950381Y-83185000D01*
X128012913Y-83091413D01*
X128063204Y-82970000D01*
X155991928Y-82970000D01*
X155991928Y-84670000D01*
X156004188Y-84794482D01*
X156040498Y-84914180D01*
X156099463Y-85024494D01*
X156178815Y-85121185D01*
X156275506Y-85200537D01*
X156385820Y-85259502D01*
X156458380Y-85281513D01*
X156326525Y-85413368D01*
X156164010Y-85656589D01*
X156052068Y-85926842D01*
X155995000Y-86213740D01*
X155995000Y-86506260D01*
X156052068Y-86793158D01*
X156164010Y-87063411D01*
X156326525Y-87306632D01*
X156533368Y-87513475D01*
X156776589Y-87675990D01*
X157046842Y-87787932D01*
X157333740Y-87845000D01*
X157626260Y-87845000D01*
X157913158Y-87787932D01*
X158183411Y-87675990D01*
X158426632Y-87513475D01*
X158633475Y-87306632D01*
X158795990Y-87063411D01*
X158907932Y-86793158D01*
X158965000Y-86506260D01*
X158965000Y-86213740D01*
X158907932Y-85926842D01*
X158795990Y-85656589D01*
X158633475Y-85413368D01*
X158501620Y-85281513D01*
X158574180Y-85259502D01*
X158684494Y-85200537D01*
X158781185Y-85121185D01*
X158860537Y-85024494D01*
X158919502Y-84914180D01*
X158955812Y-84794482D01*
X158968072Y-84670000D01*
X158968072Y-82970000D01*
X158955812Y-82845518D01*
X158919502Y-82725820D01*
X158860537Y-82615506D01*
X158781185Y-82518815D01*
X158684494Y-82439463D01*
X158574180Y-82380498D01*
X158454482Y-82344188D01*
X158330000Y-82331928D01*
X156630000Y-82331928D01*
X156505518Y-82344188D01*
X156385820Y-82380498D01*
X156275506Y-82439463D01*
X156178815Y-82518815D01*
X156099463Y-82615506D01*
X156040498Y-82725820D01*
X156004188Y-82845518D01*
X155991928Y-82970000D01*
X128063204Y-82970000D01*
X128099075Y-82883401D01*
X128143000Y-82662576D01*
X128143000Y-82437424D01*
X128099075Y-82216599D01*
X128012913Y-82008587D01*
X127950381Y-81915000D01*
X128012913Y-81821413D01*
X128099075Y-81613401D01*
X128143000Y-81392576D01*
X128143000Y-81167424D01*
X128099075Y-80946599D01*
X128012913Y-80738587D01*
X127887826Y-80551380D01*
X127728620Y-80392174D01*
X127541413Y-80267087D01*
X127333401Y-80180925D01*
X127112576Y-80137000D01*
X126887424Y-80137000D01*
X126666599Y-80180925D01*
X126458587Y-80267087D01*
X126271380Y-80392174D01*
X126112174Y-80551380D01*
X125987087Y-80738587D01*
X125900925Y-80946599D01*
X125857000Y-81167424D01*
X83750680Y-81167424D01*
X83644180Y-81110498D01*
X83571620Y-81088487D01*
X83703475Y-80956632D01*
X83865990Y-80713411D01*
X83977932Y-80443158D01*
X84035000Y-80156260D01*
X84035000Y-79863740D01*
X83977932Y-79576842D01*
X83865990Y-79306589D01*
X83703475Y-79063368D01*
X83496632Y-78856525D01*
X83322240Y-78740000D01*
X83496632Y-78623475D01*
X83703475Y-78416632D01*
X83865990Y-78173411D01*
X83977932Y-77903158D01*
X84035000Y-77616260D01*
X84035000Y-77323740D01*
X83977932Y-77036842D01*
X83865990Y-76766589D01*
X83703475Y-76523368D01*
X83509189Y-76329082D01*
X151180523Y-76329082D01*
X151320889Y-76631334D01*
X151673538Y-76809168D01*
X152054104Y-76914786D01*
X152447962Y-76944129D01*
X152839978Y-76896072D01*
X153215086Y-76772458D01*
X153479111Y-76631334D01*
X153619477Y-76329082D01*
X156260523Y-76329082D01*
X156400889Y-76631334D01*
X156753538Y-76809168D01*
X157134104Y-76914786D01*
X157527962Y-76944129D01*
X157919978Y-76896072D01*
X158295086Y-76772458D01*
X158559111Y-76631334D01*
X158699477Y-76329082D01*
X157480000Y-75109605D01*
X156260523Y-76329082D01*
X153619477Y-76329082D01*
X152400000Y-75109605D01*
X151180523Y-76329082D01*
X83509189Y-76329082D01*
X83496632Y-76316525D01*
X83314466Y-76194805D01*
X83431355Y-76125178D01*
X83647588Y-75930269D01*
X83821641Y-75696920D01*
X83946825Y-75434099D01*
X83991476Y-75286890D01*
X83870155Y-75057000D01*
X82677000Y-75057000D01*
X82677000Y-75077000D01*
X82423000Y-75077000D01*
X82423000Y-75057000D01*
X81229845Y-75057000D01*
X81108524Y-75286890D01*
X81153175Y-75434099D01*
X81278359Y-75696920D01*
X81452412Y-75930269D01*
X81668645Y-76125178D01*
X81785534Y-76194805D01*
X81603368Y-76316525D01*
X81396525Y-76523368D01*
X81234010Y-76766589D01*
X81122068Y-77036842D01*
X81065000Y-77323740D01*
X81065000Y-77616260D01*
X81122068Y-77903158D01*
X81234010Y-78173411D01*
X81396525Y-78416632D01*
X81603368Y-78623475D01*
X81777760Y-78740000D01*
X81603368Y-78856525D01*
X81396525Y-79063368D01*
X81234010Y-79306589D01*
X81122068Y-79576842D01*
X81065000Y-79863740D01*
X81065000Y-80156260D01*
X81122068Y-80443158D01*
X81234010Y-80713411D01*
X81396525Y-80956632D01*
X81528380Y-81088487D01*
X81455820Y-81110498D01*
X81345506Y-81169463D01*
X81248815Y-81248815D01*
X81169463Y-81345506D01*
X81110498Y-81455820D01*
X81074188Y-81575518D01*
X81061928Y-81700000D01*
X75590000Y-81700000D01*
X75590000Y-74977962D01*
X150385871Y-74977962D01*
X150433928Y-75369978D01*
X150557542Y-75745086D01*
X150698666Y-76009111D01*
X151000918Y-76149477D01*
X152220395Y-74930000D01*
X151000918Y-73710523D01*
X150698666Y-73850889D01*
X150520832Y-74203538D01*
X150415214Y-74584104D01*
X150385871Y-74977962D01*
X75590000Y-74977962D01*
X75590000Y-72243740D01*
X81065000Y-72243740D01*
X81065000Y-72536260D01*
X81122068Y-72823158D01*
X81234010Y-73093411D01*
X81396525Y-73336632D01*
X81603368Y-73543475D01*
X81785534Y-73665195D01*
X81668645Y-73734822D01*
X81452412Y-73929731D01*
X81278359Y-74163080D01*
X81153175Y-74425901D01*
X81108524Y-74573110D01*
X81229845Y-74803000D01*
X82423000Y-74803000D01*
X82423000Y-74783000D01*
X82677000Y-74783000D01*
X82677000Y-74803000D01*
X83870155Y-74803000D01*
X83991476Y-74573110D01*
X83946825Y-74425901D01*
X83821641Y-74163080D01*
X83647588Y-73929731D01*
X83431355Y-73734822D01*
X83314466Y-73665195D01*
X83496632Y-73543475D01*
X83703475Y-73336632D01*
X83865990Y-73093411D01*
X83977932Y-72823158D01*
X84035000Y-72536260D01*
X84035000Y-72243740D01*
X83977932Y-71956842D01*
X83865990Y-71686589D01*
X83703475Y-71443368D01*
X83509189Y-71249082D01*
X151180523Y-71249082D01*
X151320889Y-71551334D01*
X151673538Y-71729168D01*
X152054104Y-71834786D01*
X152447962Y-71864129D01*
X152839978Y-71816072D01*
X153215086Y-71692458D01*
X153361820Y-71614027D01*
X153252443Y-71878085D01*
X153185000Y-72217148D01*
X153185000Y-72562852D01*
X153252443Y-72901915D01*
X153363676Y-73170455D01*
X153126462Y-73050832D01*
X152745896Y-72945214D01*
X152352038Y-72915871D01*
X151960022Y-72963928D01*
X151584914Y-73087542D01*
X151320889Y-73228666D01*
X151180523Y-73530918D01*
X152400000Y-74750395D01*
X152414143Y-74736253D01*
X152593748Y-74915858D01*
X152579605Y-74930000D01*
X153799082Y-76149477D01*
X154101334Y-76009111D01*
X154279168Y-75656462D01*
X154384786Y-75275896D01*
X154414129Y-74882038D01*
X154366072Y-74490022D01*
X154242458Y-74114914D01*
X154164027Y-73968180D01*
X154428085Y-74077557D01*
X154767148Y-74145000D01*
X155112852Y-74145000D01*
X155451915Y-74077557D01*
X155720455Y-73966324D01*
X155600832Y-74203538D01*
X155495214Y-74584104D01*
X155465871Y-74977962D01*
X155513928Y-75369978D01*
X155637542Y-75745086D01*
X155778666Y-76009111D01*
X156080918Y-76149477D01*
X157300395Y-74930000D01*
X157659605Y-74930000D01*
X158879082Y-76149477D01*
X159181334Y-76009111D01*
X159359168Y-75656462D01*
X159464786Y-75275896D01*
X159494129Y-74882038D01*
X159446072Y-74490022D01*
X159322458Y-74114914D01*
X159181334Y-73850889D01*
X158879082Y-73710523D01*
X157659605Y-74930000D01*
X157300395Y-74930000D01*
X157286253Y-74915858D01*
X157465858Y-74736253D01*
X157480000Y-74750395D01*
X158699477Y-73530918D01*
X158559111Y-73228666D01*
X158206462Y-73050832D01*
X157825896Y-72945214D01*
X157432038Y-72915871D01*
X157040022Y-72963928D01*
X156664914Y-73087542D01*
X156518180Y-73165973D01*
X156627557Y-72901915D01*
X156695000Y-72562852D01*
X156695000Y-72217148D01*
X156627557Y-71878085D01*
X156516324Y-71609545D01*
X156753538Y-71729168D01*
X157134104Y-71834786D01*
X157527962Y-71864129D01*
X157919978Y-71816072D01*
X158295086Y-71692458D01*
X158559111Y-71551334D01*
X158699477Y-71249082D01*
X157480000Y-70029605D01*
X157465858Y-70043748D01*
X157286253Y-69864143D01*
X157300395Y-69850000D01*
X157659605Y-69850000D01*
X158879082Y-71069477D01*
X159181334Y-70929111D01*
X159359168Y-70576462D01*
X159464786Y-70195896D01*
X159494129Y-69802038D01*
X159446072Y-69410022D01*
X159322458Y-69034914D01*
X159181334Y-68770889D01*
X158879082Y-68630523D01*
X157659605Y-69850000D01*
X157300395Y-69850000D01*
X156080918Y-68630523D01*
X155778666Y-68770889D01*
X155600832Y-69123538D01*
X155495214Y-69504104D01*
X155465871Y-69897962D01*
X155513928Y-70289978D01*
X155637542Y-70665086D01*
X155715973Y-70811820D01*
X155451915Y-70702443D01*
X155112852Y-70635000D01*
X154767148Y-70635000D01*
X154428085Y-70702443D01*
X154159545Y-70813676D01*
X154279168Y-70576462D01*
X154384786Y-70195896D01*
X154414129Y-69802038D01*
X154366072Y-69410022D01*
X154242458Y-69034914D01*
X154101334Y-68770889D01*
X153799082Y-68630523D01*
X152579605Y-69850000D01*
X152593748Y-69864143D01*
X152414143Y-70043748D01*
X152400000Y-70029605D01*
X151180523Y-71249082D01*
X83509189Y-71249082D01*
X83496632Y-71236525D01*
X83253411Y-71074010D01*
X82983158Y-70962068D01*
X82696260Y-70905000D01*
X82403740Y-70905000D01*
X82116842Y-70962068D01*
X81846589Y-71074010D01*
X81603368Y-71236525D01*
X81396525Y-71443368D01*
X81234010Y-71686589D01*
X81122068Y-71956842D01*
X81065000Y-72243740D01*
X75590000Y-72243740D01*
X75590000Y-69897962D01*
X150385871Y-69897962D01*
X150433928Y-70289978D01*
X150557542Y-70665086D01*
X150698666Y-70929111D01*
X151000918Y-71069477D01*
X152220395Y-69850000D01*
X151000918Y-68630523D01*
X150698666Y-68770889D01*
X150520832Y-69123538D01*
X150415214Y-69504104D01*
X150385871Y-69897962D01*
X75590000Y-69897962D01*
X75590000Y-68217587D01*
X109344407Y-68217587D01*
X109382434Y-68439504D01*
X109463024Y-68649738D01*
X109491869Y-68703704D01*
X109706103Y-68739792D01*
X110310395Y-68135500D01*
X109706103Y-67531208D01*
X109491869Y-67567296D01*
X109400197Y-67772939D01*
X109350405Y-67992516D01*
X109344407Y-68217587D01*
X75590000Y-68217587D01*
X75590000Y-67351603D01*
X109885708Y-67351603D01*
X109894905Y-67360800D01*
X109885708Y-67369997D01*
X109921796Y-67584231D01*
X110127439Y-67675903D01*
X110234223Y-67700118D01*
X110490000Y-67955895D01*
X110504143Y-67941753D01*
X110618705Y-68056315D01*
X110614407Y-68217587D01*
X110614611Y-68218779D01*
X110504143Y-68329248D01*
X110490000Y-68315105D01*
X109885708Y-68919397D01*
X109921796Y-69133631D01*
X110127439Y-69225303D01*
X110347016Y-69275095D01*
X110572087Y-69281093D01*
X110794004Y-69243066D01*
X111004238Y-69162476D01*
X111058204Y-69133631D01*
X111081850Y-68993258D01*
X111125000Y-68950108D01*
X111168150Y-68993258D01*
X111191796Y-69133631D01*
X111397439Y-69225303D01*
X111617016Y-69275095D01*
X111842087Y-69281093D01*
X112064004Y-69243066D01*
X112274238Y-69162476D01*
X112328204Y-69133631D01*
X112351850Y-68993258D01*
X112395000Y-68950108D01*
X112438150Y-68993258D01*
X112461796Y-69133631D01*
X112667439Y-69225303D01*
X112887016Y-69275095D01*
X113112087Y-69281093D01*
X113334004Y-69243066D01*
X113544238Y-69162476D01*
X113598204Y-69133631D01*
X113634292Y-68919397D01*
X113030000Y-68315105D01*
X113015858Y-68329248D01*
X112901295Y-68214685D01*
X112903405Y-68135500D01*
X113209605Y-68135500D01*
X113813897Y-68739792D01*
X114028131Y-68703704D01*
X114119803Y-68498061D01*
X114169595Y-68278484D01*
X114175593Y-68053413D01*
X114137566Y-67831496D01*
X114056976Y-67621262D01*
X114028131Y-67567296D01*
X113813897Y-67531208D01*
X113209605Y-68135500D01*
X112903405Y-68135500D01*
X112905593Y-68053413D01*
X112905389Y-68052221D01*
X113015858Y-67941753D01*
X113030000Y-67955895D01*
X113283590Y-67702305D01*
X113334004Y-67693666D01*
X113544238Y-67613076D01*
X113598204Y-67584231D01*
X113634292Y-67369997D01*
X113625095Y-67360800D01*
X113634292Y-67351603D01*
X113598204Y-67137369D01*
X113392561Y-67045697D01*
X113285777Y-67021482D01*
X113030000Y-66765705D01*
X113015858Y-66779848D01*
X112836253Y-66600243D01*
X112850395Y-66586100D01*
X113209605Y-66586100D01*
X113813897Y-67190392D01*
X114028131Y-67154304D01*
X114119803Y-66948661D01*
X114169595Y-66729084D01*
X114173424Y-66585367D01*
X127599300Y-66585367D01*
X127599300Y-66790033D01*
X127639228Y-66990765D01*
X127703073Y-67144900D01*
X127639228Y-67299035D01*
X127599300Y-67499767D01*
X127599300Y-67704433D01*
X127639228Y-67905165D01*
X127717550Y-68094251D01*
X127831256Y-68264424D01*
X127975976Y-68409144D01*
X128146149Y-68522850D01*
X128335235Y-68601172D01*
X128535967Y-68641100D01*
X128740633Y-68641100D01*
X128941365Y-68601172D01*
X129130451Y-68522850D01*
X129238104Y-68450918D01*
X151180523Y-68450918D01*
X152400000Y-69670395D01*
X153619477Y-68450918D01*
X156260523Y-68450918D01*
X157480000Y-69670395D01*
X158699477Y-68450918D01*
X158559111Y-68148666D01*
X158206462Y-67970832D01*
X157825896Y-67865214D01*
X157432038Y-67835871D01*
X157040022Y-67883928D01*
X156664914Y-68007542D01*
X156400889Y-68148666D01*
X156260523Y-68450918D01*
X153619477Y-68450918D01*
X153479111Y-68148666D01*
X153126462Y-67970832D01*
X152745896Y-67865214D01*
X152352038Y-67835871D01*
X151960022Y-67883928D01*
X151584914Y-68007542D01*
X151320889Y-68148666D01*
X151180523Y-68450918D01*
X129238104Y-68450918D01*
X129300624Y-68409144D01*
X129445344Y-68264424D01*
X129559050Y-68094251D01*
X129637372Y-67905165D01*
X129677300Y-67704433D01*
X129677300Y-67499767D01*
X129637372Y-67299035D01*
X129573527Y-67144900D01*
X129637372Y-66990765D01*
X129677300Y-66790033D01*
X129677300Y-66585367D01*
X129637372Y-66384635D01*
X129559050Y-66195549D01*
X129445344Y-66025376D01*
X129300624Y-65880656D01*
X129130451Y-65766950D01*
X128941365Y-65688628D01*
X128740633Y-65648700D01*
X128535967Y-65648700D01*
X128335235Y-65688628D01*
X128146149Y-65766950D01*
X127975976Y-65880656D01*
X127831256Y-66025376D01*
X127717550Y-66195549D01*
X127639228Y-66384635D01*
X127599300Y-66585367D01*
X114173424Y-66585367D01*
X114175593Y-66504013D01*
X114137566Y-66282096D01*
X114056976Y-66071862D01*
X114028131Y-66017896D01*
X113813897Y-65981808D01*
X113209605Y-66586100D01*
X112850395Y-66586100D01*
X112246103Y-65981808D01*
X112170019Y-65994624D01*
X111760000Y-65584605D01*
X111349981Y-65994624D01*
X111273897Y-65981808D01*
X110669605Y-66586100D01*
X110683748Y-66600243D01*
X110504143Y-66779848D01*
X110490000Y-66765705D01*
X110236410Y-67019295D01*
X110185996Y-67027934D01*
X109975762Y-67108524D01*
X109921796Y-67137369D01*
X109885708Y-67351603D01*
X75590000Y-67351603D01*
X75590000Y-66668187D01*
X109344407Y-66668187D01*
X109382434Y-66890104D01*
X109463024Y-67100338D01*
X109491869Y-67154304D01*
X109706103Y-67190392D01*
X110310395Y-66586100D01*
X109706103Y-65981808D01*
X109491869Y-66017896D01*
X109400197Y-66223539D01*
X109350405Y-66443116D01*
X109344407Y-66668187D01*
X75590000Y-66668187D01*
X75590000Y-65802203D01*
X109885708Y-65802203D01*
X110490000Y-66406495D01*
X110986524Y-65909971D01*
X111067204Y-65918191D01*
X111580395Y-65405000D01*
X111939605Y-65405000D01*
X112452796Y-65918191D01*
X112533476Y-65909971D01*
X113030000Y-66406495D01*
X113634292Y-65802203D01*
X113598204Y-65587969D01*
X113392561Y-65496297D01*
X113172984Y-65446505D01*
X112947913Y-65440507D01*
X112775254Y-65470093D01*
X112777191Y-65317867D01*
X112740648Y-65121097D01*
X112666418Y-64935238D01*
X112654171Y-64912327D01*
X112452796Y-64891809D01*
X111939605Y-65405000D01*
X111580395Y-65405000D01*
X111067204Y-64891809D01*
X110865829Y-64912327D01*
X110786894Y-65096238D01*
X110745356Y-65292014D01*
X110743072Y-65471469D01*
X110632984Y-65446505D01*
X110407913Y-65440507D01*
X110185996Y-65478534D01*
X109975762Y-65559124D01*
X109921796Y-65587969D01*
X109885708Y-65802203D01*
X75590000Y-65802203D01*
X75590000Y-64712204D01*
X111246809Y-64712204D01*
X111304605Y-64770000D01*
X111246809Y-64827796D01*
X111267327Y-65029171D01*
X111451238Y-65108106D01*
X111647014Y-65149644D01*
X111684729Y-65150124D01*
X111760000Y-65225395D01*
X111833379Y-65152016D01*
X111847133Y-65152191D01*
X112043903Y-65115648D01*
X112229762Y-65041418D01*
X112252673Y-65029171D01*
X112273191Y-64827796D01*
X112215395Y-64770000D01*
X112273191Y-64712204D01*
X112252673Y-64510829D01*
X112068762Y-64431894D01*
X111872986Y-64390356D01*
X111835271Y-64389876D01*
X111760000Y-64314605D01*
X111686621Y-64387984D01*
X111672867Y-64387809D01*
X111476097Y-64424352D01*
X111290238Y-64498582D01*
X111267327Y-64510829D01*
X111246809Y-64712204D01*
X75590000Y-64712204D01*
X75590000Y-63737797D01*
X109885708Y-63737797D01*
X109921796Y-63952031D01*
X110127439Y-64043703D01*
X110347016Y-64093495D01*
X110572087Y-64099493D01*
X110744746Y-64069907D01*
X110742809Y-64222133D01*
X110779352Y-64418903D01*
X110853582Y-64604762D01*
X110865829Y-64627673D01*
X111067204Y-64648191D01*
X111580395Y-64135000D01*
X111939605Y-64135000D01*
X112452796Y-64648191D01*
X112654171Y-64627673D01*
X112707866Y-64502567D01*
X121757300Y-64502567D01*
X121757300Y-64707233D01*
X121797228Y-64907965D01*
X121861073Y-65062100D01*
X121797228Y-65216235D01*
X121757300Y-65416967D01*
X121757300Y-65621633D01*
X121797228Y-65822365D01*
X121875550Y-66011451D01*
X121989256Y-66181624D01*
X122133976Y-66326344D01*
X122304149Y-66440050D01*
X122493235Y-66518372D01*
X122693967Y-66558300D01*
X122898633Y-66558300D01*
X123099365Y-66518372D01*
X123288451Y-66440050D01*
X123458624Y-66326344D01*
X123603344Y-66181624D01*
X123717050Y-66011451D01*
X123795372Y-65822365D01*
X123835300Y-65621633D01*
X123835300Y-65416967D01*
X123795372Y-65216235D01*
X123731527Y-65062100D01*
X123795372Y-64907965D01*
X123835300Y-64707233D01*
X123835300Y-64502567D01*
X123795372Y-64301835D01*
X123717050Y-64112749D01*
X123603344Y-63942576D01*
X123458624Y-63797856D01*
X123288451Y-63684150D01*
X123099365Y-63605828D01*
X122898633Y-63565900D01*
X122693967Y-63565900D01*
X122493235Y-63605828D01*
X122304149Y-63684150D01*
X122133976Y-63797856D01*
X121989256Y-63942576D01*
X121875550Y-64112749D01*
X121797228Y-64301835D01*
X121757300Y-64502567D01*
X112707866Y-64502567D01*
X112733106Y-64443762D01*
X112774644Y-64247986D01*
X112776928Y-64068531D01*
X112887016Y-64093495D01*
X113112087Y-64099493D01*
X113334004Y-64061466D01*
X113544238Y-63980876D01*
X113598204Y-63952031D01*
X113634292Y-63737797D01*
X113030000Y-63133505D01*
X112533476Y-63630029D01*
X112452796Y-63621809D01*
X111939605Y-64135000D01*
X111580395Y-64135000D01*
X111067204Y-63621809D01*
X110986524Y-63630029D01*
X110490000Y-63133505D01*
X109885708Y-63737797D01*
X75590000Y-63737797D01*
X75590000Y-63035987D01*
X109344407Y-63035987D01*
X109382434Y-63257904D01*
X109463024Y-63468138D01*
X109491869Y-63522104D01*
X109706103Y-63558192D01*
X110310395Y-62953900D01*
X109706103Y-62349608D01*
X109491869Y-62385696D01*
X109400197Y-62591339D01*
X109350405Y-62810916D01*
X109344407Y-63035987D01*
X75590000Y-63035987D01*
X75590000Y-61486587D01*
X109344407Y-61486587D01*
X109382434Y-61708504D01*
X109463024Y-61918738D01*
X109491869Y-61972704D01*
X109706103Y-62008792D01*
X110310395Y-61404500D01*
X109706103Y-60800208D01*
X109491869Y-60836296D01*
X109400197Y-61041939D01*
X109350405Y-61261516D01*
X109344407Y-61486587D01*
X75590000Y-61486587D01*
X75590000Y-60620603D01*
X109885708Y-60620603D01*
X110490000Y-61224895D01*
X110504143Y-61210753D01*
X110618705Y-61325315D01*
X110614407Y-61486587D01*
X110614611Y-61487779D01*
X110504143Y-61598248D01*
X110490000Y-61584105D01*
X110236410Y-61837695D01*
X110185996Y-61846334D01*
X109975762Y-61926924D01*
X109921796Y-61955769D01*
X109885708Y-62170003D01*
X109894905Y-62179200D01*
X109885708Y-62188397D01*
X109921796Y-62402631D01*
X110127439Y-62494303D01*
X110234223Y-62518518D01*
X110490000Y-62774295D01*
X110504143Y-62760153D01*
X110683748Y-62939758D01*
X110669605Y-62953900D01*
X111273897Y-63558192D01*
X111349981Y-63545376D01*
X111760000Y-63955395D01*
X112170019Y-63545376D01*
X112246103Y-63558192D01*
X112850395Y-62953900D01*
X113209605Y-62953900D01*
X113813897Y-63558192D01*
X114028131Y-63522104D01*
X114119803Y-63316461D01*
X114169595Y-63096884D01*
X114175593Y-62871813D01*
X114137566Y-62649896D01*
X114056976Y-62439662D01*
X114028131Y-62385696D01*
X113813897Y-62349608D01*
X113209605Y-62953900D01*
X112850395Y-62953900D01*
X112836253Y-62939758D01*
X113015858Y-62760153D01*
X113030000Y-62774295D01*
X113283590Y-62520705D01*
X113334004Y-62512066D01*
X113544238Y-62431476D01*
X113598204Y-62402631D01*
X113634292Y-62188397D01*
X113625095Y-62179200D01*
X113634292Y-62170003D01*
X113598204Y-61955769D01*
X113392561Y-61864097D01*
X113285777Y-61839882D01*
X113030000Y-61584105D01*
X113015858Y-61598248D01*
X112901295Y-61483685D01*
X112903405Y-61404500D01*
X113209605Y-61404500D01*
X113813897Y-62008792D01*
X114028131Y-61972704D01*
X114119803Y-61767061D01*
X114169595Y-61547484D01*
X114175593Y-61322413D01*
X114137566Y-61100496D01*
X114056976Y-60890262D01*
X114028131Y-60836296D01*
X113813897Y-60800208D01*
X113209605Y-61404500D01*
X112903405Y-61404500D01*
X112905593Y-61322413D01*
X112905389Y-61321221D01*
X113015858Y-61210753D01*
X113030000Y-61224895D01*
X113634292Y-60620603D01*
X113598204Y-60406369D01*
X113392561Y-60314697D01*
X113172984Y-60264905D01*
X112947913Y-60258907D01*
X112725996Y-60296934D01*
X112515762Y-60377524D01*
X112461796Y-60406369D01*
X112438150Y-60546742D01*
X112395000Y-60589892D01*
X112351850Y-60546742D01*
X112328204Y-60406369D01*
X112122561Y-60314697D01*
X111902984Y-60264905D01*
X111677913Y-60258907D01*
X111455996Y-60296934D01*
X111245762Y-60377524D01*
X111191796Y-60406369D01*
X111168150Y-60546742D01*
X111125000Y-60589892D01*
X111081850Y-60546742D01*
X111058204Y-60406369D01*
X110852561Y-60314697D01*
X110632984Y-60264905D01*
X110407913Y-60258907D01*
X110185996Y-60296934D01*
X109975762Y-60377524D01*
X109921796Y-60406369D01*
X109885708Y-60620603D01*
X75590000Y-60620603D01*
X75590000Y-51460000D01*
X164440001Y-51460000D01*
X164440000Y-103480000D01*
G37*
%TD.AperFunction*%
D19*
X111888705Y-68056315D02*
X111884407Y-68217587D01*
X111884611Y-68218779D01*
X111774143Y-68329248D01*
X111760000Y-68315105D01*
X111745858Y-68329248D01*
X111631295Y-68214685D01*
X111635593Y-68053413D01*
X111635389Y-68052221D01*
X111745858Y-67941753D01*
X111760000Y-67955895D01*
X111774143Y-67941753D01*
X111888705Y-68056315D01*
%TA.AperFunction,Conductor*%
D20*
G36*
X111888705Y-68056315D02*
G01*
X111884407Y-68217587D01*
X111884611Y-68218779D01*
X111774143Y-68329248D01*
X111760000Y-68315105D01*
X111745858Y-68329248D01*
X111631295Y-68214685D01*
X111635593Y-68053413D01*
X111635389Y-68052221D01*
X111745858Y-67941753D01*
X111760000Y-67955895D01*
X111774143Y-67941753D01*
X111888705Y-68056315D01*
G37*
%TD.AperFunction*%
D19*
X111888705Y-61325315D02*
X111884407Y-61486587D01*
X111884611Y-61487779D01*
X111774143Y-61598248D01*
X111760000Y-61584105D01*
X111745858Y-61598248D01*
X111631295Y-61483685D01*
X111635593Y-61322413D01*
X111635389Y-61321221D01*
X111745858Y-61210753D01*
X111760000Y-61224895D01*
X111774143Y-61210753D01*
X111888705Y-61325315D01*
%TA.AperFunction,Conductor*%
D20*
G36*
X111888705Y-61325315D02*
G01*
X111884407Y-61486587D01*
X111884611Y-61487779D01*
X111774143Y-61598248D01*
X111760000Y-61584105D01*
X111745858Y-61598248D01*
X111631295Y-61483685D01*
X111635593Y-61322413D01*
X111635389Y-61321221D01*
X111745858Y-61210753D01*
X111760000Y-61224895D01*
X111774143Y-61210753D01*
X111888705Y-61325315D01*
G37*
%TD.AperFunction*%
%TD*%
M02*
