M48
; DRILL file {KiCad 5.1.9-73d0e3b20d~88~ubuntu20.04.1} date Sun Aug 29 02:06:42 2021
; FORMAT={-:-/ absolute / metric / decimal}
; #@! TF.CreationDate,2021-08-29T02:06:42+07:00
; #@! TF.GenerationSoftware,Kicad,Pcbnew,5.1.9-73d0e3b20d~88~ubuntu20.04.1
; #@! TF.FileFunction,Plated,1,2,PTH
FMAT,2
METRIC
T1C0.400
T2C0.508
T3C1.000
T4C1.200
T5C1.700
%
G90
G05
T1
X118.11Y-96.52
X121.92Y-81.28
X128.27Y-63.5
X130.81Y-97.79
X132.08Y-83.82
X138.43Y-59.69
T2
X90.526Y-62.23
X90.526Y-67.31
X90.526Y-69.85
X90.526Y-74.93
X90.526Y-77.47
X95.352Y-62.23
X95.352Y-64.77
X95.352Y-67.31
X95.352Y-69.85
X95.352Y-72.39
X95.352Y-74.93
X95.352Y-77.47
X100.66Y-62.23
X100.66Y-64.77
X100.66Y-67.31
X100.66Y-69.85
X100.66Y-72.39
X100.66Y-74.93
X100.66Y-77.47
X105.486Y-62.23
X105.486Y-67.31
X105.486Y-69.85
X105.486Y-72.39
X105.486Y-74.93
X105.486Y-77.47
X110.49Y-61.404
X110.49Y-62.954
X110.49Y-66.586
X110.49Y-68.135
X111.76Y-61.404
X111.76Y-64.135
X111.76Y-65.405
X111.76Y-68.135
X113.03Y-61.404
X113.03Y-62.954
X113.03Y-66.586
X113.03Y-68.135
X122.796Y-64.605
X122.796Y-65.519
X127.0Y-81.28
X127.0Y-82.55
X127.0Y-83.82
X127.0Y-85.09
X127.0Y-86.36
X128.638Y-66.688
X128.638Y-67.602
X130.442Y-93.688
X130.442Y-94.602
X136.284Y-95.771
X136.284Y-96.685
T3
X82.55Y-72.39
X82.55Y-74.93
X82.55Y-77.47
X82.55Y-80.01
X82.55Y-82.55
X157.48Y-83.82
X157.48Y-86.36
T4
X147.32Y-96.52
X154.94Y-72.39
T5
X144.78Y-93.98
X144.78Y-99.06
X149.86Y-93.98
X149.86Y-99.06
X152.4Y-69.85
X152.4Y-74.93
X157.48Y-69.85
X157.48Y-74.93
T0
M30
