%FSLAX45Y45*%
G04 Gerber Fmt 4.5, Leading zero omitted, Abs format (unit mm)*
G04 Created by KiCad (PCBNEW 5.1.9-73d0e3b20d~88~ubuntu20.04.1) date 2021-08-29 02:07:08*
%MOMM*%
%LPD*%
G01*
G04 APERTURE LIST*
%TA.AperFunction,Profile*%
%ADD10C,0.050000*%
%TD*%
%ADD11C,0.200000*%
%ADD12C,0.300000*%
G04 APERTURE END LIST*
D10*
X7493000Y-5080000D02*
X7493000Y-5207000D01*
X16510000Y-5080000D02*
X7493000Y-5080000D01*
X16510000Y-10414000D02*
X16510000Y-5080000D01*
X7493000Y-10414000D02*
X16510000Y-10414000D01*
X7493000Y-5207000D02*
X7493000Y-10414000D01*
D11*
D12*
X7776928Y-10882214D02*
X7776928Y-10582214D01*
X7848357Y-10582214D01*
X7891214Y-10596500D01*
X7919786Y-10625072D01*
X7934071Y-10653643D01*
X7948357Y-10710786D01*
X7948357Y-10753643D01*
X7934071Y-10810786D01*
X7919786Y-10839357D01*
X7891214Y-10867929D01*
X7848357Y-10882214D01*
X7776928Y-10882214D01*
X8076928Y-10882214D02*
X8076928Y-10682214D01*
X8076928Y-10739357D02*
X8091214Y-10710786D01*
X8105500Y-10696500D01*
X8134071Y-10682214D01*
X8162643Y-10682214D01*
X8262643Y-10882214D02*
X8262643Y-10682214D01*
X8262643Y-10582214D02*
X8248357Y-10596500D01*
X8262643Y-10610786D01*
X8276928Y-10596500D01*
X8262643Y-10582214D01*
X8262643Y-10610786D01*
X8448357Y-10882214D02*
X8419786Y-10867929D01*
X8405500Y-10839357D01*
X8405500Y-10582214D01*
X8605500Y-10882214D02*
X8576928Y-10867929D01*
X8562643Y-10839357D01*
X8562643Y-10582214D01*
X8948357Y-10882214D02*
X8948357Y-10582214D01*
X9048357Y-10796500D01*
X9148357Y-10582214D01*
X9148357Y-10882214D01*
X9419786Y-10882214D02*
X9419786Y-10725072D01*
X9405500Y-10696500D01*
X9376928Y-10682214D01*
X9319786Y-10682214D01*
X9291214Y-10696500D01*
X9419786Y-10867929D02*
X9391214Y-10882214D01*
X9319786Y-10882214D01*
X9291214Y-10867929D01*
X9276928Y-10839357D01*
X9276928Y-10810786D01*
X9291214Y-10782214D01*
X9319786Y-10767929D01*
X9391214Y-10767929D01*
X9419786Y-10753643D01*
X9562643Y-10682214D02*
X9562643Y-10982214D01*
X9562643Y-10696500D02*
X9591214Y-10682214D01*
X9648357Y-10682214D01*
X9676928Y-10696500D01*
X9691214Y-10710786D01*
X9705500Y-10739357D01*
X9705500Y-10825072D01*
X9691214Y-10853643D01*
X9676928Y-10867929D01*
X9648357Y-10882214D01*
X9591214Y-10882214D01*
X9562643Y-10867929D01*
X9834071Y-10853643D02*
X9848357Y-10867929D01*
X9834071Y-10882214D01*
X9819786Y-10867929D01*
X9834071Y-10853643D01*
X9834071Y-10882214D01*
X9834071Y-10696500D02*
X9848357Y-10710786D01*
X9834071Y-10725072D01*
X9819786Y-10710786D01*
X9834071Y-10696500D01*
X9834071Y-10725072D01*
M02*
