%TF.GenerationSoftware,KiCad,Pcbnew,5.1.9-73d0e3b20d~88~ubuntu20.04.1*%
%TF.CreationDate,2021-08-29T02:04:36+07:00*%
%TF.ProjectId,rf_gpr,72665f67-7072-42e6-9b69-6361645f7063,rev?*%
%TF.SameCoordinates,Original*%
%TF.FileFunction,Paste,Top*%
%TF.FilePolarity,Positive*%
%FSLAX46Y46*%
G04 Gerber Fmt 4.6, Leading zero omitted, Abs format (unit mm)*
G04 Created by KiCad (PCBNEW 5.1.9-73d0e3b20d~88~ubuntu20.04.1) date 2021-08-29 02:04:36*
%MOMM*%
%LPD*%
G01*
G04 APERTURE LIST*
%ADD10R,2.540000X1.650000*%
%ADD11R,1.295400X1.193800*%
%ADD12R,1.295400X0.889000*%
%ADD13R,0.790000X1.680000*%
%ADD14R,2.060000X1.680000*%
%ADD15R,3.330000X0.690000*%
%ADD16R,0.790000X2.110000*%
%ADD17R,2.540000X1.651000*%
%ADD18R,2.030000X1.650000*%
%ADD19R,1.520000X1.520000*%
G04 APERTURE END LIST*
D10*
%TO.C,U6*%
X144780000Y-67310000D03*
X144780000Y-69850000D03*
X144780000Y-72390000D03*
X139700000Y-72390000D03*
X139700000Y-69850000D03*
X139700000Y-67310000D03*
%TD*%
D11*
%TO.C,U8*%
X134467600Y-95999300D03*
D12*
X132257800Y-96202500D03*
X132257800Y-94297500D03*
X134467600Y-94297500D03*
%TD*%
D13*
%TO.C,U7*%
X132080000Y-67650000D03*
X134620000Y-67650000D03*
D14*
X133985000Y-64430000D03*
D13*
X132080000Y-64430000D03*
D15*
X133350000Y-66040000D03*
D16*
X133350000Y-67435000D03*
%TD*%
D13*
%TO.C,U5*%
X127000000Y-93640000D03*
X124460000Y-93640000D03*
D14*
X125095000Y-96860000D03*
D13*
X127000000Y-96860000D03*
D15*
X125730000Y-95250000D03*
D16*
X125730000Y-93855000D03*
%TD*%
D11*
%TO.C,U4*%
X124612400Y-65290700D03*
D12*
X126822200Y-65087500D03*
X126822200Y-66992500D03*
X124612400Y-66992500D03*
%TD*%
D17*
%TO.C,U3*%
X129540000Y-81280000D03*
X129540000Y-83820000D03*
X129540000Y-86360000D03*
X124460000Y-86360000D03*
X124460000Y-83820000D03*
X124460000Y-81280000D03*
%TD*%
D18*
%TO.C,U2*%
X111760000Y-62674000D03*
X111760000Y-66866000D03*
D19*
X113920000Y-64770000D03*
X109600000Y-64770000D03*
%TD*%
D17*
%TO.C,U1*%
X103403400Y-77470000D03*
X103403400Y-74930000D03*
X103403400Y-72390000D03*
X103403400Y-69850000D03*
X103403400Y-67310000D03*
X103403400Y-64770000D03*
X103403400Y-62230000D03*
X92608400Y-77470000D03*
X92608400Y-74930000D03*
X92608400Y-72390000D03*
X92608400Y-69850000D03*
X92608400Y-67310000D03*
X92608400Y-64770000D03*
X92608400Y-62230000D03*
%TD*%
%TO.C,C4*%
G36*
G01*
X139542500Y-96452500D02*
X139542500Y-96587500D01*
G75*
G02*
X139475000Y-96655000I-67500J0D01*
G01*
X139200000Y-96655000D01*
G75*
G02*
X139132500Y-96587500I0J67500D01*
G01*
X139132500Y-96452500D01*
G75*
G02*
X139200000Y-96385000I67500J0D01*
G01*
X139475000Y-96385000D01*
G75*
G02*
X139542500Y-96452500I0J-67500D01*
G01*
G37*
G36*
G01*
X140267500Y-96452500D02*
X140267500Y-96587500D01*
G75*
G02*
X140200000Y-96655000I-67500J0D01*
G01*
X139925000Y-96655000D01*
G75*
G02*
X139857500Y-96587500I0J67500D01*
G01*
X139857500Y-96452500D01*
G75*
G02*
X139925000Y-96385000I67500J0D01*
G01*
X140200000Y-96385000D01*
G75*
G02*
X140267500Y-96452500I0J-67500D01*
G01*
G37*
%TD*%
%TO.C,C3*%
G36*
G01*
X135440000Y-60485000D02*
X135440000Y-61435000D01*
G75*
G02*
X135190000Y-61685000I-250000J0D01*
G01*
X134515000Y-61685000D01*
G75*
G02*
X134265000Y-61435000I0J250000D01*
G01*
X134265000Y-60485000D01*
G75*
G02*
X134515000Y-60235000I250000J0D01*
G01*
X135190000Y-60235000D01*
G75*
G02*
X135440000Y-60485000I0J-250000D01*
G01*
G37*
G36*
G01*
X137515000Y-60485000D02*
X137515000Y-61435000D01*
G75*
G02*
X137265000Y-61685000I-250000J0D01*
G01*
X136590000Y-61685000D01*
G75*
G02*
X136340000Y-61435000I0J250000D01*
G01*
X136340000Y-60485000D01*
G75*
G02*
X136590000Y-60235000I250000J0D01*
G01*
X137265000Y-60235000D01*
G75*
G02*
X137515000Y-60485000I0J-250000D01*
G01*
G37*
%TD*%
%TO.C,C2*%
G36*
G01*
X120867500Y-96995000D02*
X120867500Y-96045000D01*
G75*
G02*
X121117500Y-95795000I250000J0D01*
G01*
X121792500Y-95795000D01*
G75*
G02*
X122042500Y-96045000I0J-250000D01*
G01*
X122042500Y-96995000D01*
G75*
G02*
X121792500Y-97245000I-250000J0D01*
G01*
X121117500Y-97245000D01*
G75*
G02*
X120867500Y-96995000I0J250000D01*
G01*
G37*
G36*
G01*
X118792500Y-96995000D02*
X118792500Y-96045000D01*
G75*
G02*
X119042500Y-95795000I250000J0D01*
G01*
X119717500Y-95795000D01*
G75*
G02*
X119967500Y-96045000I0J-250000D01*
G01*
X119967500Y-96995000D01*
G75*
G02*
X119717500Y-97245000I-250000J0D01*
G01*
X119042500Y-97245000D01*
G75*
G02*
X118792500Y-96995000I0J250000D01*
G01*
G37*
%TD*%
%TO.C,C1*%
G36*
G01*
X118477500Y-64615000D02*
X118477500Y-64925000D01*
G75*
G02*
X118322500Y-65080000I-155000J0D01*
G01*
X117897500Y-65080000D01*
G75*
G02*
X117742500Y-64925000I0J155000D01*
G01*
X117742500Y-64615000D01*
G75*
G02*
X117897500Y-64460000I155000J0D01*
G01*
X118322500Y-64460000D01*
G75*
G02*
X118477500Y-64615000I0J-155000D01*
G01*
G37*
G36*
G01*
X119612500Y-64615000D02*
X119612500Y-64925000D01*
G75*
G02*
X119457500Y-65080000I-155000J0D01*
G01*
X119032500Y-65080000D01*
G75*
G02*
X118877500Y-64925000I0J155000D01*
G01*
X118877500Y-64615000D01*
G75*
G02*
X119032500Y-64460000I155000J0D01*
G01*
X119457500Y-64460000D01*
G75*
G02*
X119612500Y-64615000I0J-155000D01*
G01*
G37*
%TD*%
M02*
