%FSLAX45Y45*%
G04 Gerber Fmt 4.5, Leading zero omitted, Abs format (unit mm)*
G04 Created by KiCad (PCBNEW 5.1.9-73d0e3b20d~88~ubuntu20.04.1) date 2021-08-29 02:07:08*
%MOMM*%
%LPD*%
G01*
G04 APERTURE LIST*
%TA.AperFunction,Profile*%
%ADD10C,0.050000*%
%TD*%
%ADD11C,0.200000*%
%ADD12C,0.300000*%
G04 APERTURE END LIST*
D10*
X7493000Y-5080000D02*
X7493000Y-5207000D01*
X16510000Y-5080000D02*
X7493000Y-5080000D01*
X16510000Y-10414000D02*
X16510000Y-5080000D01*
X7493000Y-10414000D02*
X16510000Y-10414000D01*
X7493000Y-5207000D02*
X7493000Y-10414000D01*
D11*
X11791000Y-9632000D02*
X11831000Y-9672000D01*
X11831000Y-9632000D02*
X11791000Y-9672000D01*
X12172000Y-8108000D02*
X12212000Y-8148000D01*
X12212000Y-8108000D02*
X12172000Y-8148000D01*
X12807000Y-6330000D02*
X12847000Y-6370000D01*
X12847000Y-6330000D02*
X12807000Y-6370000D01*
X13061000Y-9759000D02*
X13101000Y-9799000D01*
X13101000Y-9759000D02*
X13061000Y-9799000D01*
X13188000Y-8362000D02*
X13228000Y-8402000D01*
X13228000Y-8362000D02*
X13188000Y-8402000D01*
X13823000Y-5949000D02*
X13863000Y-5989000D01*
X13863000Y-5949000D02*
X13823000Y-5989000D01*
X9077960Y-6223000D02*
G75*
G03*
X9077960Y-6223000I-25400J0D01*
G01*
X9077960Y-6731000D02*
G75*
G03*
X9077960Y-6731000I-25400J0D01*
G01*
X9077960Y-6985000D02*
G75*
G03*
X9077960Y-6985000I-25400J0D01*
G01*
X9077960Y-7493000D02*
G75*
G03*
X9077960Y-7493000I-25400J0D01*
G01*
X9077960Y-7747000D02*
G75*
G03*
X9077960Y-7747000I-25400J0D01*
G01*
X9560560Y-6223000D02*
G75*
G03*
X9560560Y-6223000I-25400J0D01*
G01*
X9560560Y-6477000D02*
G75*
G03*
X9560560Y-6477000I-25400J0D01*
G01*
X9560560Y-6731000D02*
G75*
G03*
X9560560Y-6731000I-25400J0D01*
G01*
X9560560Y-6985000D02*
G75*
G03*
X9560560Y-6985000I-25400J0D01*
G01*
X9560560Y-7239000D02*
G75*
G03*
X9560560Y-7239000I-25400J0D01*
G01*
X9560560Y-7493000D02*
G75*
G03*
X9560560Y-7493000I-25400J0D01*
G01*
X9560560Y-7747000D02*
G75*
G03*
X9560560Y-7747000I-25400J0D01*
G01*
X10091420Y-6223000D02*
G75*
G03*
X10091420Y-6223000I-25400J0D01*
G01*
X10091420Y-6477000D02*
G75*
G03*
X10091420Y-6477000I-25400J0D01*
G01*
X10091420Y-6731000D02*
G75*
G03*
X10091420Y-6731000I-25400J0D01*
G01*
X10091420Y-6985000D02*
G75*
G03*
X10091420Y-6985000I-25400J0D01*
G01*
X10091420Y-7239000D02*
G75*
G03*
X10091420Y-7239000I-25400J0D01*
G01*
X10091420Y-7493000D02*
G75*
G03*
X10091420Y-7493000I-25400J0D01*
G01*
X10091420Y-7747000D02*
G75*
G03*
X10091420Y-7747000I-25400J0D01*
G01*
X10574020Y-6223000D02*
G75*
G03*
X10574020Y-6223000I-25400J0D01*
G01*
X10574020Y-6731000D02*
G75*
G03*
X10574020Y-6731000I-25400J0D01*
G01*
X10574020Y-6985000D02*
G75*
G03*
X10574020Y-6985000I-25400J0D01*
G01*
X10574020Y-7239000D02*
G75*
G03*
X10574020Y-7239000I-25400J0D01*
G01*
X10574020Y-7493000D02*
G75*
G03*
X10574020Y-7493000I-25400J0D01*
G01*
X10574020Y-7747000D02*
G75*
G03*
X10574020Y-7747000I-25400J0D01*
G01*
X11074400Y-6140450D02*
G75*
G03*
X11074400Y-6140450I-25400J0D01*
G01*
X11074400Y-6295390D02*
G75*
G03*
X11074400Y-6295390I-25400J0D01*
G01*
X11074400Y-6658610D02*
G75*
G03*
X11074400Y-6658610I-25400J0D01*
G01*
X11074400Y-6813550D02*
G75*
G03*
X11074400Y-6813550I-25400J0D01*
G01*
X11201400Y-6140450D02*
G75*
G03*
X11201400Y-6140450I-25400J0D01*
G01*
X11201400Y-6413500D02*
G75*
G03*
X11201400Y-6413500I-25400J0D01*
G01*
X11201400Y-6540500D02*
G75*
G03*
X11201400Y-6540500I-25400J0D01*
G01*
X11201400Y-6813550D02*
G75*
G03*
X11201400Y-6813550I-25400J0D01*
G01*
X11328400Y-6140450D02*
G75*
G03*
X11328400Y-6140450I-25400J0D01*
G01*
X11328400Y-6295390D02*
G75*
G03*
X11328400Y-6295390I-25400J0D01*
G01*
X11328400Y-6658610D02*
G75*
G03*
X11328400Y-6658610I-25400J0D01*
G01*
X11328400Y-6813550D02*
G75*
G03*
X11328400Y-6813550I-25400J0D01*
G01*
X12305030Y-6460490D02*
G75*
G03*
X12305030Y-6460490I-25400J0D01*
G01*
X12305030Y-6551930D02*
G75*
G03*
X12305030Y-6551930I-25400J0D01*
G01*
X12725400Y-8128000D02*
G75*
G03*
X12725400Y-8128000I-25400J0D01*
G01*
X12725400Y-8255000D02*
G75*
G03*
X12725400Y-8255000I-25400J0D01*
G01*
X12725400Y-8382000D02*
G75*
G03*
X12725400Y-8382000I-25400J0D01*
G01*
X12725400Y-8509000D02*
G75*
G03*
X12725400Y-8509000I-25400J0D01*
G01*
X12725400Y-8636000D02*
G75*
G03*
X12725400Y-8636000I-25400J0D01*
G01*
X12889230Y-6668770D02*
G75*
G03*
X12889230Y-6668770I-25400J0D01*
G01*
X12889230Y-6760210D02*
G75*
G03*
X12889230Y-6760210I-25400J0D01*
G01*
X13069570Y-9368790D02*
G75*
G03*
X13069570Y-9368790I-25400J0D01*
G01*
X13069570Y-9460230D02*
G75*
G03*
X13069570Y-9460230I-25400J0D01*
G01*
X13653770Y-9577070D02*
G75*
G03*
X13653770Y-9577070I-25400J0D01*
G01*
X13653770Y-9668510D02*
G75*
G03*
X13653770Y-9668510I-25400J0D01*
G01*
X8255000Y-7189000D02*
X8255000Y-7289000D01*
X8205000Y-7239000D02*
X8305000Y-7239000D01*
X8255000Y-7443000D02*
X8255000Y-7543000D01*
X8205000Y-7493000D02*
X8305000Y-7493000D01*
X8255000Y-7697000D02*
X8255000Y-7797000D01*
X8205000Y-7747000D02*
X8305000Y-7747000D01*
X8255000Y-7951000D02*
X8255000Y-8051000D01*
X8205000Y-8001000D02*
X8305000Y-8001000D01*
X8255000Y-8205000D02*
X8255000Y-8305000D01*
X8205000Y-8255000D02*
X8305000Y-8255000D01*
X15748000Y-8332000D02*
X15748000Y-8432000D01*
X15698000Y-8382000D02*
X15798000Y-8382000D01*
X15748000Y-8586000D02*
X15748000Y-8686000D01*
X15698000Y-8636000D02*
X15798000Y-8636000D01*
X14774427Y-9694427D02*
X14774427Y-9609573D01*
X14689573Y-9609573D01*
X14689573Y-9694427D01*
X14774427Y-9694427D01*
X15536427Y-7281427D02*
X15536427Y-7196573D01*
X15451573Y-7196573D01*
X15451573Y-7281427D01*
X15536427Y-7281427D01*
X14478000Y-9483000D02*
X14563000Y-9398000D01*
X14478000Y-9313000D01*
X14393000Y-9398000D01*
X14478000Y-9483000D01*
X14478000Y-9991000D02*
X14563000Y-9906000D01*
X14478000Y-9821000D01*
X14393000Y-9906000D01*
X14478000Y-9991000D01*
X14986000Y-9483000D02*
X15071000Y-9398000D01*
X14986000Y-9313000D01*
X14901000Y-9398000D01*
X14986000Y-9483000D01*
X14986000Y-9991000D02*
X15071000Y-9906000D01*
X14986000Y-9821000D01*
X14901000Y-9906000D01*
X14986000Y-9991000D01*
X15240000Y-7070000D02*
X15325000Y-6985000D01*
X15240000Y-6900000D01*
X15155000Y-6985000D01*
X15240000Y-7070000D01*
X15240000Y-7578000D02*
X15325000Y-7493000D01*
X15240000Y-7408000D01*
X15155000Y-7493000D01*
X15240000Y-7578000D01*
X15748000Y-7070000D02*
X15833000Y-6985000D01*
X15748000Y-6900000D01*
X15663000Y-6985000D01*
X15748000Y-7070000D01*
X15748000Y-7578000D02*
X15833000Y-7493000D01*
X15748000Y-7408000D01*
X15663000Y-7493000D01*
X15748000Y-7578000D01*
D12*
X7776928Y-10882214D02*
X7776928Y-10582214D01*
X7848357Y-10582214D01*
X7891214Y-10596500D01*
X7919786Y-10625072D01*
X7934071Y-10653643D01*
X7948357Y-10710786D01*
X7948357Y-10753643D01*
X7934071Y-10810786D01*
X7919786Y-10839357D01*
X7891214Y-10867929D01*
X7848357Y-10882214D01*
X7776928Y-10882214D01*
X8076928Y-10882214D02*
X8076928Y-10682214D01*
X8076928Y-10739357D02*
X8091214Y-10710786D01*
X8105500Y-10696500D01*
X8134071Y-10682214D01*
X8162643Y-10682214D01*
X8262643Y-10882214D02*
X8262643Y-10682214D01*
X8262643Y-10582214D02*
X8248357Y-10596500D01*
X8262643Y-10610786D01*
X8276928Y-10596500D01*
X8262643Y-10582214D01*
X8262643Y-10610786D01*
X8448357Y-10882214D02*
X8419786Y-10867929D01*
X8405500Y-10839357D01*
X8405500Y-10582214D01*
X8605500Y-10882214D02*
X8576928Y-10867929D01*
X8562643Y-10839357D01*
X8562643Y-10582214D01*
X8948357Y-10882214D02*
X8948357Y-10582214D01*
X9048357Y-10796500D01*
X9148357Y-10582214D01*
X9148357Y-10882214D01*
X9419786Y-10882214D02*
X9419786Y-10725072D01*
X9405500Y-10696500D01*
X9376928Y-10682214D01*
X9319786Y-10682214D01*
X9291214Y-10696500D01*
X9419786Y-10867929D02*
X9391214Y-10882214D01*
X9319786Y-10882214D01*
X9291214Y-10867929D01*
X9276928Y-10839357D01*
X9276928Y-10810786D01*
X9291214Y-10782214D01*
X9319786Y-10767929D01*
X9391214Y-10767929D01*
X9419786Y-10753643D01*
X9562643Y-10682214D02*
X9562643Y-10982214D01*
X9562643Y-10696500D02*
X9591214Y-10682214D01*
X9648357Y-10682214D01*
X9676928Y-10696500D01*
X9691214Y-10710786D01*
X9705500Y-10739357D01*
X9705500Y-10825072D01*
X9691214Y-10853643D01*
X9676928Y-10867929D01*
X9648357Y-10882214D01*
X9591214Y-10882214D01*
X9562643Y-10867929D01*
X9834071Y-10853643D02*
X9848357Y-10867929D01*
X9834071Y-10882214D01*
X9819786Y-10867929D01*
X9834071Y-10853643D01*
X9834071Y-10882214D01*
X9834071Y-10696500D02*
X9848357Y-10710786D01*
X9834071Y-10725072D01*
X9819786Y-10710786D01*
X9834071Y-10696500D01*
X9834071Y-10725072D01*
X7450500Y-11356500D02*
X7490500Y-11396500D01*
X7490500Y-11356500D02*
X7450500Y-11396500D01*
X7834071Y-11212214D02*
X7862643Y-11212214D01*
X7891214Y-11226500D01*
X7905500Y-11240786D01*
X7919786Y-11269357D01*
X7934071Y-11326500D01*
X7934071Y-11397929D01*
X7919786Y-11455071D01*
X7905500Y-11483643D01*
X7891214Y-11497929D01*
X7862643Y-11512214D01*
X7834071Y-11512214D01*
X7805500Y-11497929D01*
X7791214Y-11483643D01*
X7776928Y-11455071D01*
X7762643Y-11397929D01*
X7762643Y-11326500D01*
X7776928Y-11269357D01*
X7791214Y-11240786D01*
X7805500Y-11226500D01*
X7834071Y-11212214D01*
X8062643Y-11483643D02*
X8076928Y-11497929D01*
X8062643Y-11512214D01*
X8048357Y-11497929D01*
X8062643Y-11483643D01*
X8062643Y-11512214D01*
X8334071Y-11312214D02*
X8334071Y-11512214D01*
X8262643Y-11197929D02*
X8191214Y-11412214D01*
X8376928Y-11412214D01*
X8548357Y-11212214D02*
X8576928Y-11212214D01*
X8605500Y-11226500D01*
X8619786Y-11240786D01*
X8634071Y-11269357D01*
X8648357Y-11326500D01*
X8648357Y-11397929D01*
X8634071Y-11455071D01*
X8619786Y-11483643D01*
X8605500Y-11497929D01*
X8576928Y-11512214D01*
X8548357Y-11512214D01*
X8519786Y-11497929D01*
X8505500Y-11483643D01*
X8491214Y-11455071D01*
X8476928Y-11397929D01*
X8476928Y-11326500D01*
X8491214Y-11269357D01*
X8505500Y-11240786D01*
X8519786Y-11226500D01*
X8548357Y-11212214D01*
X8776928Y-11512214D02*
X8776928Y-11312214D01*
X8776928Y-11340786D02*
X8791214Y-11326500D01*
X8819786Y-11312214D01*
X8862643Y-11312214D01*
X8891214Y-11326500D01*
X8905500Y-11355071D01*
X8905500Y-11512214D01*
X8905500Y-11355071D02*
X8919786Y-11326500D01*
X8948357Y-11312214D01*
X8991214Y-11312214D01*
X9019786Y-11326500D01*
X9034071Y-11355071D01*
X9034071Y-11512214D01*
X9176928Y-11512214D02*
X9176928Y-11312214D01*
X9176928Y-11340786D02*
X9191214Y-11326500D01*
X9219786Y-11312214D01*
X9262643Y-11312214D01*
X9291214Y-11326500D01*
X9305500Y-11355071D01*
X9305500Y-11512214D01*
X9305500Y-11355071D02*
X9319786Y-11326500D01*
X9348357Y-11312214D01*
X9391214Y-11312214D01*
X9419786Y-11326500D01*
X9434071Y-11355071D01*
X9434071Y-11512214D01*
X10019786Y-11197929D02*
X9762643Y-11583643D01*
X10405500Y-11212214D02*
X10434071Y-11212214D01*
X10462643Y-11226500D01*
X10476928Y-11240786D01*
X10491214Y-11269357D01*
X10505500Y-11326500D01*
X10505500Y-11397929D01*
X10491214Y-11455071D01*
X10476928Y-11483643D01*
X10462643Y-11497929D01*
X10434071Y-11512214D01*
X10405500Y-11512214D01*
X10376928Y-11497929D01*
X10362643Y-11483643D01*
X10348357Y-11455071D01*
X10334071Y-11397929D01*
X10334071Y-11326500D01*
X10348357Y-11269357D01*
X10362643Y-11240786D01*
X10376928Y-11226500D01*
X10405500Y-11212214D01*
X10634071Y-11483643D02*
X10648357Y-11497929D01*
X10634071Y-11512214D01*
X10619786Y-11497929D01*
X10634071Y-11483643D01*
X10634071Y-11512214D01*
X10834071Y-11212214D02*
X10862643Y-11212214D01*
X10891214Y-11226500D01*
X10905500Y-11240786D01*
X10919786Y-11269357D01*
X10934071Y-11326500D01*
X10934071Y-11397929D01*
X10919786Y-11455071D01*
X10905500Y-11483643D01*
X10891214Y-11497929D01*
X10862643Y-11512214D01*
X10834071Y-11512214D01*
X10805500Y-11497929D01*
X10791214Y-11483643D01*
X10776928Y-11455071D01*
X10762643Y-11397929D01*
X10762643Y-11326500D01*
X10776928Y-11269357D01*
X10791214Y-11240786D01*
X10805500Y-11226500D01*
X10834071Y-11212214D01*
X11219786Y-11512214D02*
X11048357Y-11512214D01*
X11134071Y-11512214D02*
X11134071Y-11212214D01*
X11105500Y-11255071D01*
X11076928Y-11283643D01*
X11048357Y-11297929D01*
X11476928Y-11212214D02*
X11419786Y-11212214D01*
X11391214Y-11226500D01*
X11376928Y-11240786D01*
X11348357Y-11283643D01*
X11334071Y-11340786D01*
X11334071Y-11455071D01*
X11348357Y-11483643D01*
X11362643Y-11497929D01*
X11391214Y-11512214D01*
X11448357Y-11512214D01*
X11476928Y-11497929D01*
X11491214Y-11483643D01*
X11505500Y-11455071D01*
X11505500Y-11383643D01*
X11491214Y-11355071D01*
X11476928Y-11340786D01*
X11448357Y-11326500D01*
X11391214Y-11326500D01*
X11362643Y-11340786D01*
X11348357Y-11355071D01*
X11334071Y-11383643D01*
X11619786Y-11212214D02*
X11619786Y-11269357D01*
X11734071Y-11212214D02*
X11734071Y-11269357D01*
X12176928Y-11626500D02*
X12162643Y-11612214D01*
X12134071Y-11569357D01*
X12119786Y-11540786D01*
X12105500Y-11497929D01*
X12091214Y-11426500D01*
X12091214Y-11369357D01*
X12105500Y-11297929D01*
X12119786Y-11255071D01*
X12134071Y-11226500D01*
X12162643Y-11183643D01*
X12176928Y-11169357D01*
X12419786Y-11212214D02*
X12362643Y-11212214D01*
X12334071Y-11226500D01*
X12319786Y-11240786D01*
X12291214Y-11283643D01*
X12276928Y-11340786D01*
X12276928Y-11455071D01*
X12291214Y-11483643D01*
X12305500Y-11497929D01*
X12334071Y-11512214D01*
X12391214Y-11512214D01*
X12419786Y-11497929D01*
X12434071Y-11483643D01*
X12448357Y-11455071D01*
X12448357Y-11383643D01*
X12434071Y-11355071D01*
X12419786Y-11340786D01*
X12391214Y-11326500D01*
X12334071Y-11326500D01*
X12305500Y-11340786D01*
X12291214Y-11355071D01*
X12276928Y-11383643D01*
X12805500Y-11512214D02*
X12805500Y-11212214D01*
X12934071Y-11512214D02*
X12934071Y-11355071D01*
X12919786Y-11326500D01*
X12891214Y-11312214D01*
X12848357Y-11312214D01*
X12819786Y-11326500D01*
X12805500Y-11340786D01*
X13119786Y-11512214D02*
X13091214Y-11497929D01*
X13076928Y-11483643D01*
X13062643Y-11455071D01*
X13062643Y-11369357D01*
X13076928Y-11340786D01*
X13091214Y-11326500D01*
X13119786Y-11312214D01*
X13162643Y-11312214D01*
X13191214Y-11326500D01*
X13205500Y-11340786D01*
X13219786Y-11369357D01*
X13219786Y-11455071D01*
X13205500Y-11483643D01*
X13191214Y-11497929D01*
X13162643Y-11512214D01*
X13119786Y-11512214D01*
X13391214Y-11512214D02*
X13362643Y-11497929D01*
X13348357Y-11469357D01*
X13348357Y-11212214D01*
X13619786Y-11497929D02*
X13591214Y-11512214D01*
X13534071Y-11512214D01*
X13505500Y-11497929D01*
X13491214Y-11469357D01*
X13491214Y-11355071D01*
X13505500Y-11326500D01*
X13534071Y-11312214D01*
X13591214Y-11312214D01*
X13619786Y-11326500D01*
X13634071Y-11355071D01*
X13634071Y-11383643D01*
X13491214Y-11412214D01*
X13748357Y-11497929D02*
X13776928Y-11512214D01*
X13834071Y-11512214D01*
X13862643Y-11497929D01*
X13876928Y-11469357D01*
X13876928Y-11455071D01*
X13862643Y-11426500D01*
X13834071Y-11412214D01*
X13791214Y-11412214D01*
X13762643Y-11397929D01*
X13748357Y-11369357D01*
X13748357Y-11355071D01*
X13762643Y-11326500D01*
X13791214Y-11312214D01*
X13834071Y-11312214D01*
X13862643Y-11326500D01*
X13976928Y-11626500D02*
X13991214Y-11612214D01*
X14019786Y-11569357D01*
X14034071Y-11540786D01*
X14048357Y-11497929D01*
X14062643Y-11426500D01*
X14062643Y-11369357D01*
X14048357Y-11297929D01*
X14034071Y-11255071D01*
X14019786Y-11226500D01*
X13991214Y-11183643D01*
X13976928Y-11169357D01*
X7490500Y-11772500D02*
G75*
G03*
X7490500Y-11772500I-25400J0D01*
G01*
X7834071Y-11608214D02*
X7862643Y-11608214D01*
X7891214Y-11622500D01*
X7905500Y-11636786D01*
X7919786Y-11665357D01*
X7934071Y-11722500D01*
X7934071Y-11793929D01*
X7919786Y-11851071D01*
X7905500Y-11879643D01*
X7891214Y-11893929D01*
X7862643Y-11908214D01*
X7834071Y-11908214D01*
X7805500Y-11893929D01*
X7791214Y-11879643D01*
X7776928Y-11851071D01*
X7762643Y-11793929D01*
X7762643Y-11722500D01*
X7776928Y-11665357D01*
X7791214Y-11636786D01*
X7805500Y-11622500D01*
X7834071Y-11608214D01*
X8062643Y-11879643D02*
X8076928Y-11893929D01*
X8062643Y-11908214D01*
X8048357Y-11893929D01*
X8062643Y-11879643D01*
X8062643Y-11908214D01*
X8348357Y-11608214D02*
X8205500Y-11608214D01*
X8191214Y-11751071D01*
X8205500Y-11736786D01*
X8234071Y-11722500D01*
X8305500Y-11722500D01*
X8334071Y-11736786D01*
X8348357Y-11751071D01*
X8362643Y-11779643D01*
X8362643Y-11851071D01*
X8348357Y-11879643D01*
X8334071Y-11893929D01*
X8305500Y-11908214D01*
X8234071Y-11908214D01*
X8205500Y-11893929D01*
X8191214Y-11879643D01*
X8648357Y-11908214D02*
X8476928Y-11908214D01*
X8562643Y-11908214D02*
X8562643Y-11608214D01*
X8534071Y-11651071D01*
X8505500Y-11679643D01*
X8476928Y-11693929D01*
X8776928Y-11908214D02*
X8776928Y-11708214D01*
X8776928Y-11736786D02*
X8791214Y-11722500D01*
X8819786Y-11708214D01*
X8862643Y-11708214D01*
X8891214Y-11722500D01*
X8905500Y-11751071D01*
X8905500Y-11908214D01*
X8905500Y-11751071D02*
X8919786Y-11722500D01*
X8948357Y-11708214D01*
X8991214Y-11708214D01*
X9019786Y-11722500D01*
X9034071Y-11751071D01*
X9034071Y-11908214D01*
X9176928Y-11908214D02*
X9176928Y-11708214D01*
X9176928Y-11736786D02*
X9191214Y-11722500D01*
X9219786Y-11708214D01*
X9262643Y-11708214D01*
X9291214Y-11722500D01*
X9305500Y-11751071D01*
X9305500Y-11908214D01*
X9305500Y-11751071D02*
X9319786Y-11722500D01*
X9348357Y-11708214D01*
X9391214Y-11708214D01*
X9419786Y-11722500D01*
X9434071Y-11751071D01*
X9434071Y-11908214D01*
X10019786Y-11593929D02*
X9762643Y-11979643D01*
X10405500Y-11608214D02*
X10434071Y-11608214D01*
X10462643Y-11622500D01*
X10476928Y-11636786D01*
X10491214Y-11665357D01*
X10505500Y-11722500D01*
X10505500Y-11793929D01*
X10491214Y-11851071D01*
X10476928Y-11879643D01*
X10462643Y-11893929D01*
X10434071Y-11908214D01*
X10405500Y-11908214D01*
X10376928Y-11893929D01*
X10362643Y-11879643D01*
X10348357Y-11851071D01*
X10334071Y-11793929D01*
X10334071Y-11722500D01*
X10348357Y-11665357D01*
X10362643Y-11636786D01*
X10376928Y-11622500D01*
X10405500Y-11608214D01*
X10634071Y-11879643D02*
X10648357Y-11893929D01*
X10634071Y-11908214D01*
X10619786Y-11893929D01*
X10634071Y-11879643D01*
X10634071Y-11908214D01*
X10834071Y-11608214D02*
X10862643Y-11608214D01*
X10891214Y-11622500D01*
X10905500Y-11636786D01*
X10919786Y-11665357D01*
X10934071Y-11722500D01*
X10934071Y-11793929D01*
X10919786Y-11851071D01*
X10905500Y-11879643D01*
X10891214Y-11893929D01*
X10862643Y-11908214D01*
X10834071Y-11908214D01*
X10805500Y-11893929D01*
X10791214Y-11879643D01*
X10776928Y-11851071D01*
X10762643Y-11793929D01*
X10762643Y-11722500D01*
X10776928Y-11665357D01*
X10791214Y-11636786D01*
X10805500Y-11622500D01*
X10834071Y-11608214D01*
X11048357Y-11636786D02*
X11062643Y-11622500D01*
X11091214Y-11608214D01*
X11162643Y-11608214D01*
X11191214Y-11622500D01*
X11205500Y-11636786D01*
X11219786Y-11665357D01*
X11219786Y-11693929D01*
X11205500Y-11736786D01*
X11034071Y-11908214D01*
X11219786Y-11908214D01*
X11405500Y-11608214D02*
X11434071Y-11608214D01*
X11462643Y-11622500D01*
X11476928Y-11636786D01*
X11491214Y-11665357D01*
X11505500Y-11722500D01*
X11505500Y-11793929D01*
X11491214Y-11851071D01*
X11476928Y-11879643D01*
X11462643Y-11893929D01*
X11434071Y-11908214D01*
X11405500Y-11908214D01*
X11376928Y-11893929D01*
X11362643Y-11879643D01*
X11348357Y-11851071D01*
X11334071Y-11793929D01*
X11334071Y-11722500D01*
X11348357Y-11665357D01*
X11362643Y-11636786D01*
X11376928Y-11622500D01*
X11405500Y-11608214D01*
X11619786Y-11608214D02*
X11619786Y-11665357D01*
X11734071Y-11608214D02*
X11734071Y-11665357D01*
X12176928Y-12022500D02*
X12162643Y-12008214D01*
X12134071Y-11965357D01*
X12119786Y-11936786D01*
X12105500Y-11893929D01*
X12091214Y-11822500D01*
X12091214Y-11765357D01*
X12105500Y-11693929D01*
X12119786Y-11651071D01*
X12134071Y-11622500D01*
X12162643Y-11579643D01*
X12176928Y-11565357D01*
X12434071Y-11608214D02*
X12291214Y-11608214D01*
X12276928Y-11751071D01*
X12291214Y-11736786D01*
X12319786Y-11722500D01*
X12391214Y-11722500D01*
X12419786Y-11736786D01*
X12434071Y-11751071D01*
X12448357Y-11779643D01*
X12448357Y-11851071D01*
X12434071Y-11879643D01*
X12419786Y-11893929D01*
X12391214Y-11908214D01*
X12319786Y-11908214D01*
X12291214Y-11893929D01*
X12276928Y-11879643D01*
X12634071Y-11608214D02*
X12662643Y-11608214D01*
X12691214Y-11622500D01*
X12705500Y-11636786D01*
X12719786Y-11665357D01*
X12734071Y-11722500D01*
X12734071Y-11793929D01*
X12719786Y-11851071D01*
X12705500Y-11879643D01*
X12691214Y-11893929D01*
X12662643Y-11908214D01*
X12634071Y-11908214D01*
X12605500Y-11893929D01*
X12591214Y-11879643D01*
X12576928Y-11851071D01*
X12562643Y-11793929D01*
X12562643Y-11722500D01*
X12576928Y-11665357D01*
X12591214Y-11636786D01*
X12605500Y-11622500D01*
X12634071Y-11608214D01*
X13091214Y-11908214D02*
X13091214Y-11608214D01*
X13219786Y-11908214D02*
X13219786Y-11751071D01*
X13205500Y-11722500D01*
X13176928Y-11708214D01*
X13134071Y-11708214D01*
X13105500Y-11722500D01*
X13091214Y-11736786D01*
X13405500Y-11908214D02*
X13376928Y-11893929D01*
X13362643Y-11879643D01*
X13348357Y-11851071D01*
X13348357Y-11765357D01*
X13362643Y-11736786D01*
X13376928Y-11722500D01*
X13405500Y-11708214D01*
X13448357Y-11708214D01*
X13476928Y-11722500D01*
X13491214Y-11736786D01*
X13505500Y-11765357D01*
X13505500Y-11851071D01*
X13491214Y-11879643D01*
X13476928Y-11893929D01*
X13448357Y-11908214D01*
X13405500Y-11908214D01*
X13676928Y-11908214D02*
X13648357Y-11893929D01*
X13634071Y-11865357D01*
X13634071Y-11608214D01*
X13905500Y-11893929D02*
X13876928Y-11908214D01*
X13819786Y-11908214D01*
X13791214Y-11893929D01*
X13776928Y-11865357D01*
X13776928Y-11751071D01*
X13791214Y-11722500D01*
X13819786Y-11708214D01*
X13876928Y-11708214D01*
X13905500Y-11722500D01*
X13919786Y-11751071D01*
X13919786Y-11779643D01*
X13776928Y-11808214D01*
X14034071Y-11893929D02*
X14062643Y-11908214D01*
X14119786Y-11908214D01*
X14148357Y-11893929D01*
X14162643Y-11865357D01*
X14162643Y-11851071D01*
X14148357Y-11822500D01*
X14119786Y-11808214D01*
X14076928Y-11808214D01*
X14048357Y-11793929D01*
X14034071Y-11765357D01*
X14034071Y-11751071D01*
X14048357Y-11722500D01*
X14076928Y-11708214D01*
X14119786Y-11708214D01*
X14148357Y-11722500D01*
X14262643Y-12022500D02*
X14276928Y-12008214D01*
X14305500Y-11965357D01*
X14319786Y-11936786D01*
X14334071Y-11893929D01*
X14348357Y-11822500D01*
X14348357Y-11765357D01*
X14334071Y-11693929D01*
X14319786Y-11651071D01*
X14305500Y-11622500D01*
X14276928Y-11579643D01*
X14262643Y-11565357D01*
X7440500Y-12118500D02*
X7440500Y-12218500D01*
X7390500Y-12168500D02*
X7490500Y-12168500D01*
X7934071Y-12304214D02*
X7762643Y-12304214D01*
X7848357Y-12304214D02*
X7848357Y-12004214D01*
X7819786Y-12047071D01*
X7791214Y-12075643D01*
X7762643Y-12089929D01*
X8062643Y-12275643D02*
X8076928Y-12289929D01*
X8062643Y-12304214D01*
X8048357Y-12289929D01*
X8062643Y-12275643D01*
X8062643Y-12304214D01*
X8262643Y-12004214D02*
X8291214Y-12004214D01*
X8319786Y-12018500D01*
X8334071Y-12032786D01*
X8348357Y-12061357D01*
X8362643Y-12118500D01*
X8362643Y-12189929D01*
X8348357Y-12247071D01*
X8334071Y-12275643D01*
X8319786Y-12289929D01*
X8291214Y-12304214D01*
X8262643Y-12304214D01*
X8234071Y-12289929D01*
X8219786Y-12275643D01*
X8205500Y-12247071D01*
X8191214Y-12189929D01*
X8191214Y-12118500D01*
X8205500Y-12061357D01*
X8219786Y-12032786D01*
X8234071Y-12018500D01*
X8262643Y-12004214D01*
X8548357Y-12004214D02*
X8576928Y-12004214D01*
X8605500Y-12018500D01*
X8619786Y-12032786D01*
X8634071Y-12061357D01*
X8648357Y-12118500D01*
X8648357Y-12189929D01*
X8634071Y-12247071D01*
X8619786Y-12275643D01*
X8605500Y-12289929D01*
X8576928Y-12304214D01*
X8548357Y-12304214D01*
X8519786Y-12289929D01*
X8505500Y-12275643D01*
X8491214Y-12247071D01*
X8476928Y-12189929D01*
X8476928Y-12118500D01*
X8491214Y-12061357D01*
X8505500Y-12032786D01*
X8519786Y-12018500D01*
X8548357Y-12004214D01*
X8776928Y-12304214D02*
X8776928Y-12104214D01*
X8776928Y-12132786D02*
X8791214Y-12118500D01*
X8819786Y-12104214D01*
X8862643Y-12104214D01*
X8891214Y-12118500D01*
X8905500Y-12147071D01*
X8905500Y-12304214D01*
X8905500Y-12147071D02*
X8919786Y-12118500D01*
X8948357Y-12104214D01*
X8991214Y-12104214D01*
X9019786Y-12118500D01*
X9034071Y-12147071D01*
X9034071Y-12304214D01*
X9176928Y-12304214D02*
X9176928Y-12104214D01*
X9176928Y-12132786D02*
X9191214Y-12118500D01*
X9219786Y-12104214D01*
X9262643Y-12104214D01*
X9291214Y-12118500D01*
X9305500Y-12147071D01*
X9305500Y-12304214D01*
X9305500Y-12147071D02*
X9319786Y-12118500D01*
X9348357Y-12104214D01*
X9391214Y-12104214D01*
X9419786Y-12118500D01*
X9434071Y-12147071D01*
X9434071Y-12304214D01*
X10019786Y-11989929D02*
X9762643Y-12375643D01*
X10405500Y-12004214D02*
X10434071Y-12004214D01*
X10462643Y-12018500D01*
X10476928Y-12032786D01*
X10491214Y-12061357D01*
X10505500Y-12118500D01*
X10505500Y-12189929D01*
X10491214Y-12247071D01*
X10476928Y-12275643D01*
X10462643Y-12289929D01*
X10434071Y-12304214D01*
X10405500Y-12304214D01*
X10376928Y-12289929D01*
X10362643Y-12275643D01*
X10348357Y-12247071D01*
X10334071Y-12189929D01*
X10334071Y-12118500D01*
X10348357Y-12061357D01*
X10362643Y-12032786D01*
X10376928Y-12018500D01*
X10405500Y-12004214D01*
X10634071Y-12275643D02*
X10648357Y-12289929D01*
X10634071Y-12304214D01*
X10619786Y-12289929D01*
X10634071Y-12275643D01*
X10634071Y-12304214D01*
X10834071Y-12004214D02*
X10862643Y-12004214D01*
X10891214Y-12018500D01*
X10905500Y-12032786D01*
X10919786Y-12061357D01*
X10934071Y-12118500D01*
X10934071Y-12189929D01*
X10919786Y-12247071D01*
X10905500Y-12275643D01*
X10891214Y-12289929D01*
X10862643Y-12304214D01*
X10834071Y-12304214D01*
X10805500Y-12289929D01*
X10791214Y-12275643D01*
X10776928Y-12247071D01*
X10762643Y-12189929D01*
X10762643Y-12118500D01*
X10776928Y-12061357D01*
X10791214Y-12032786D01*
X10805500Y-12018500D01*
X10834071Y-12004214D01*
X11034071Y-12004214D02*
X11219786Y-12004214D01*
X11119786Y-12118500D01*
X11162643Y-12118500D01*
X11191214Y-12132786D01*
X11205500Y-12147071D01*
X11219786Y-12175643D01*
X11219786Y-12247071D01*
X11205500Y-12275643D01*
X11191214Y-12289929D01*
X11162643Y-12304214D01*
X11076928Y-12304214D01*
X11048357Y-12289929D01*
X11034071Y-12275643D01*
X11362643Y-12304214D02*
X11419786Y-12304214D01*
X11448357Y-12289929D01*
X11462643Y-12275643D01*
X11491214Y-12232786D01*
X11505500Y-12175643D01*
X11505500Y-12061357D01*
X11491214Y-12032786D01*
X11476928Y-12018500D01*
X11448357Y-12004214D01*
X11391214Y-12004214D01*
X11362643Y-12018500D01*
X11348357Y-12032786D01*
X11334071Y-12061357D01*
X11334071Y-12132786D01*
X11348357Y-12161357D01*
X11362643Y-12175643D01*
X11391214Y-12189929D01*
X11448357Y-12189929D01*
X11476928Y-12175643D01*
X11491214Y-12161357D01*
X11505500Y-12132786D01*
X11619786Y-12004214D02*
X11619786Y-12061357D01*
X11734071Y-12004214D02*
X11734071Y-12061357D01*
X12176928Y-12418500D02*
X12162643Y-12404214D01*
X12134071Y-12361357D01*
X12119786Y-12332786D01*
X12105500Y-12289929D01*
X12091214Y-12218500D01*
X12091214Y-12161357D01*
X12105500Y-12089929D01*
X12119786Y-12047071D01*
X12134071Y-12018500D01*
X12162643Y-11975643D01*
X12176928Y-11961357D01*
X12262643Y-12004214D02*
X12462643Y-12004214D01*
X12334071Y-12304214D01*
X12805500Y-12304214D02*
X12805500Y-12004214D01*
X12934071Y-12304214D02*
X12934071Y-12147071D01*
X12919786Y-12118500D01*
X12891214Y-12104214D01*
X12848357Y-12104214D01*
X12819786Y-12118500D01*
X12805500Y-12132786D01*
X13119786Y-12304214D02*
X13091214Y-12289929D01*
X13076928Y-12275643D01*
X13062643Y-12247071D01*
X13062643Y-12161357D01*
X13076928Y-12132786D01*
X13091214Y-12118500D01*
X13119786Y-12104214D01*
X13162643Y-12104214D01*
X13191214Y-12118500D01*
X13205500Y-12132786D01*
X13219786Y-12161357D01*
X13219786Y-12247071D01*
X13205500Y-12275643D01*
X13191214Y-12289929D01*
X13162643Y-12304214D01*
X13119786Y-12304214D01*
X13391214Y-12304214D02*
X13362643Y-12289929D01*
X13348357Y-12261357D01*
X13348357Y-12004214D01*
X13619786Y-12289929D02*
X13591214Y-12304214D01*
X13534071Y-12304214D01*
X13505500Y-12289929D01*
X13491214Y-12261357D01*
X13491214Y-12147071D01*
X13505500Y-12118500D01*
X13534071Y-12104214D01*
X13591214Y-12104214D01*
X13619786Y-12118500D01*
X13634071Y-12147071D01*
X13634071Y-12175643D01*
X13491214Y-12204214D01*
X13748357Y-12289929D02*
X13776928Y-12304214D01*
X13834071Y-12304214D01*
X13862643Y-12289929D01*
X13876928Y-12261357D01*
X13876928Y-12247071D01*
X13862643Y-12218500D01*
X13834071Y-12204214D01*
X13791214Y-12204214D01*
X13762643Y-12189929D01*
X13748357Y-12161357D01*
X13748357Y-12147071D01*
X13762643Y-12118500D01*
X13791214Y-12104214D01*
X13834071Y-12104214D01*
X13862643Y-12118500D01*
X13976928Y-12418500D02*
X13991214Y-12404214D01*
X14019786Y-12361357D01*
X14034071Y-12332786D01*
X14048357Y-12289929D01*
X14062643Y-12218500D01*
X14062643Y-12161357D01*
X14048357Y-12089929D01*
X14034071Y-12047071D01*
X14019786Y-12018500D01*
X13991214Y-11975643D01*
X13976928Y-11961357D01*
X7472927Y-12606927D02*
X7472927Y-12522073D01*
X7388073Y-12522073D01*
X7388073Y-12606927D01*
X7472927Y-12606927D01*
X7934071Y-12700214D02*
X7762643Y-12700214D01*
X7848357Y-12700214D02*
X7848357Y-12400214D01*
X7819786Y-12443071D01*
X7791214Y-12471643D01*
X7762643Y-12485929D01*
X8062643Y-12671643D02*
X8076928Y-12685929D01*
X8062643Y-12700214D01*
X8048357Y-12685929D01*
X8062643Y-12671643D01*
X8062643Y-12700214D01*
X8191214Y-12428786D02*
X8205500Y-12414500D01*
X8234071Y-12400214D01*
X8305500Y-12400214D01*
X8334071Y-12414500D01*
X8348357Y-12428786D01*
X8362643Y-12457357D01*
X8362643Y-12485929D01*
X8348357Y-12528786D01*
X8176928Y-12700214D01*
X8362643Y-12700214D01*
X8548357Y-12400214D02*
X8576928Y-12400214D01*
X8605500Y-12414500D01*
X8619786Y-12428786D01*
X8634071Y-12457357D01*
X8648357Y-12514500D01*
X8648357Y-12585929D01*
X8634071Y-12643071D01*
X8619786Y-12671643D01*
X8605500Y-12685929D01*
X8576928Y-12700214D01*
X8548357Y-12700214D01*
X8519786Y-12685929D01*
X8505500Y-12671643D01*
X8491214Y-12643071D01*
X8476928Y-12585929D01*
X8476928Y-12514500D01*
X8491214Y-12457357D01*
X8505500Y-12428786D01*
X8519786Y-12414500D01*
X8548357Y-12400214D01*
X8776928Y-12700214D02*
X8776928Y-12500214D01*
X8776928Y-12528786D02*
X8791214Y-12514500D01*
X8819786Y-12500214D01*
X8862643Y-12500214D01*
X8891214Y-12514500D01*
X8905500Y-12543071D01*
X8905500Y-12700214D01*
X8905500Y-12543071D02*
X8919786Y-12514500D01*
X8948357Y-12500214D01*
X8991214Y-12500214D01*
X9019786Y-12514500D01*
X9034071Y-12543071D01*
X9034071Y-12700214D01*
X9176928Y-12700214D02*
X9176928Y-12500214D01*
X9176928Y-12528786D02*
X9191214Y-12514500D01*
X9219786Y-12500214D01*
X9262643Y-12500214D01*
X9291214Y-12514500D01*
X9305500Y-12543071D01*
X9305500Y-12700214D01*
X9305500Y-12543071D02*
X9319786Y-12514500D01*
X9348357Y-12500214D01*
X9391214Y-12500214D01*
X9419786Y-12514500D01*
X9434071Y-12543071D01*
X9434071Y-12700214D01*
X10019786Y-12385929D02*
X9762643Y-12771643D01*
X10405500Y-12400214D02*
X10434071Y-12400214D01*
X10462643Y-12414500D01*
X10476928Y-12428786D01*
X10491214Y-12457357D01*
X10505500Y-12514500D01*
X10505500Y-12585929D01*
X10491214Y-12643071D01*
X10476928Y-12671643D01*
X10462643Y-12685929D01*
X10434071Y-12700214D01*
X10405500Y-12700214D01*
X10376928Y-12685929D01*
X10362643Y-12671643D01*
X10348357Y-12643071D01*
X10334071Y-12585929D01*
X10334071Y-12514500D01*
X10348357Y-12457357D01*
X10362643Y-12428786D01*
X10376928Y-12414500D01*
X10405500Y-12400214D01*
X10634071Y-12671643D02*
X10648357Y-12685929D01*
X10634071Y-12700214D01*
X10619786Y-12685929D01*
X10634071Y-12671643D01*
X10634071Y-12700214D01*
X10834071Y-12400214D02*
X10862643Y-12400214D01*
X10891214Y-12414500D01*
X10905500Y-12428786D01*
X10919786Y-12457357D01*
X10934071Y-12514500D01*
X10934071Y-12585929D01*
X10919786Y-12643071D01*
X10905500Y-12671643D01*
X10891214Y-12685929D01*
X10862643Y-12700214D01*
X10834071Y-12700214D01*
X10805500Y-12685929D01*
X10791214Y-12671643D01*
X10776928Y-12643071D01*
X10762643Y-12585929D01*
X10762643Y-12514500D01*
X10776928Y-12457357D01*
X10791214Y-12428786D01*
X10805500Y-12414500D01*
X10834071Y-12400214D01*
X11191214Y-12500214D02*
X11191214Y-12700214D01*
X11119786Y-12385929D02*
X11048357Y-12600214D01*
X11234071Y-12600214D01*
X11319786Y-12400214D02*
X11519786Y-12400214D01*
X11391214Y-12700214D01*
X11619786Y-12400214D02*
X11619786Y-12457357D01*
X11734071Y-12400214D02*
X11734071Y-12457357D01*
X12176928Y-12814500D02*
X12162643Y-12800214D01*
X12134071Y-12757357D01*
X12119786Y-12728786D01*
X12105500Y-12685929D01*
X12091214Y-12614500D01*
X12091214Y-12557357D01*
X12105500Y-12485929D01*
X12119786Y-12443071D01*
X12134071Y-12414500D01*
X12162643Y-12371643D01*
X12176928Y-12357357D01*
X12276928Y-12428786D02*
X12291214Y-12414500D01*
X12319786Y-12400214D01*
X12391214Y-12400214D01*
X12419786Y-12414500D01*
X12434071Y-12428786D01*
X12448357Y-12457357D01*
X12448357Y-12485929D01*
X12434071Y-12528786D01*
X12262643Y-12700214D01*
X12448357Y-12700214D01*
X12805500Y-12700214D02*
X12805500Y-12400214D01*
X12934071Y-12700214D02*
X12934071Y-12543071D01*
X12919786Y-12514500D01*
X12891214Y-12500214D01*
X12848357Y-12500214D01*
X12819786Y-12514500D01*
X12805500Y-12528786D01*
X13119786Y-12700214D02*
X13091214Y-12685929D01*
X13076928Y-12671643D01*
X13062643Y-12643071D01*
X13062643Y-12557357D01*
X13076928Y-12528786D01*
X13091214Y-12514500D01*
X13119786Y-12500214D01*
X13162643Y-12500214D01*
X13191214Y-12514500D01*
X13205500Y-12528786D01*
X13219786Y-12557357D01*
X13219786Y-12643071D01*
X13205500Y-12671643D01*
X13191214Y-12685929D01*
X13162643Y-12700214D01*
X13119786Y-12700214D01*
X13391214Y-12700214D02*
X13362643Y-12685929D01*
X13348357Y-12657357D01*
X13348357Y-12400214D01*
X13619786Y-12685929D02*
X13591214Y-12700214D01*
X13534071Y-12700214D01*
X13505500Y-12685929D01*
X13491214Y-12657357D01*
X13491214Y-12543071D01*
X13505500Y-12514500D01*
X13534071Y-12500214D01*
X13591214Y-12500214D01*
X13619786Y-12514500D01*
X13634071Y-12543071D01*
X13634071Y-12571643D01*
X13491214Y-12600214D01*
X13748357Y-12685929D02*
X13776928Y-12700214D01*
X13834071Y-12700214D01*
X13862643Y-12685929D01*
X13876928Y-12657357D01*
X13876928Y-12643071D01*
X13862643Y-12614500D01*
X13834071Y-12600214D01*
X13791214Y-12600214D01*
X13762643Y-12585929D01*
X13748357Y-12557357D01*
X13748357Y-12543071D01*
X13762643Y-12514500D01*
X13791214Y-12500214D01*
X13834071Y-12500214D01*
X13862643Y-12514500D01*
X13976928Y-12814500D02*
X13991214Y-12800214D01*
X14019786Y-12757357D01*
X14034071Y-12728786D01*
X14048357Y-12685929D01*
X14062643Y-12614500D01*
X14062643Y-12557357D01*
X14048357Y-12485929D01*
X14034071Y-12443071D01*
X14019786Y-12414500D01*
X13991214Y-12371643D01*
X13976928Y-12357357D01*
X7405500Y-13045500D02*
X7490500Y-12960500D01*
X7405500Y-12875500D01*
X7320500Y-12960500D01*
X7405500Y-13045500D01*
X7934071Y-13096214D02*
X7762643Y-13096214D01*
X7848357Y-13096214D02*
X7848357Y-12796214D01*
X7819786Y-12839071D01*
X7791214Y-12867643D01*
X7762643Y-12881929D01*
X8062643Y-13067643D02*
X8076928Y-13081929D01*
X8062643Y-13096214D01*
X8048357Y-13081929D01*
X8062643Y-13067643D01*
X8062643Y-13096214D01*
X8176928Y-12796214D02*
X8376928Y-12796214D01*
X8248357Y-13096214D01*
X8548357Y-12796214D02*
X8576928Y-12796214D01*
X8605500Y-12810500D01*
X8619786Y-12824786D01*
X8634071Y-12853357D01*
X8648357Y-12910500D01*
X8648357Y-12981929D01*
X8634071Y-13039071D01*
X8619786Y-13067643D01*
X8605500Y-13081929D01*
X8576928Y-13096214D01*
X8548357Y-13096214D01*
X8519786Y-13081929D01*
X8505500Y-13067643D01*
X8491214Y-13039071D01*
X8476928Y-12981929D01*
X8476928Y-12910500D01*
X8491214Y-12853357D01*
X8505500Y-12824786D01*
X8519786Y-12810500D01*
X8548357Y-12796214D01*
X8776928Y-13096214D02*
X8776928Y-12896214D01*
X8776928Y-12924786D02*
X8791214Y-12910500D01*
X8819786Y-12896214D01*
X8862643Y-12896214D01*
X8891214Y-12910500D01*
X8905500Y-12939071D01*
X8905500Y-13096214D01*
X8905500Y-12939071D02*
X8919786Y-12910500D01*
X8948357Y-12896214D01*
X8991214Y-12896214D01*
X9019786Y-12910500D01*
X9034071Y-12939071D01*
X9034071Y-13096214D01*
X9176928Y-13096214D02*
X9176928Y-12896214D01*
X9176928Y-12924786D02*
X9191214Y-12910500D01*
X9219786Y-12896214D01*
X9262643Y-12896214D01*
X9291214Y-12910500D01*
X9305500Y-12939071D01*
X9305500Y-13096214D01*
X9305500Y-12939071D02*
X9319786Y-12910500D01*
X9348357Y-12896214D01*
X9391214Y-12896214D01*
X9419786Y-12910500D01*
X9434071Y-12939071D01*
X9434071Y-13096214D01*
X10019786Y-12781929D02*
X9762643Y-13167643D01*
X10405500Y-12796214D02*
X10434071Y-12796214D01*
X10462643Y-12810500D01*
X10476928Y-12824786D01*
X10491214Y-12853357D01*
X10505500Y-12910500D01*
X10505500Y-12981929D01*
X10491214Y-13039071D01*
X10476928Y-13067643D01*
X10462643Y-13081929D01*
X10434071Y-13096214D01*
X10405500Y-13096214D01*
X10376928Y-13081929D01*
X10362643Y-13067643D01*
X10348357Y-13039071D01*
X10334071Y-12981929D01*
X10334071Y-12910500D01*
X10348357Y-12853357D01*
X10362643Y-12824786D01*
X10376928Y-12810500D01*
X10405500Y-12796214D01*
X10634071Y-13067643D02*
X10648357Y-13081929D01*
X10634071Y-13096214D01*
X10619786Y-13081929D01*
X10634071Y-13067643D01*
X10634071Y-13096214D01*
X10834071Y-12796214D02*
X10862643Y-12796214D01*
X10891214Y-12810500D01*
X10905500Y-12824786D01*
X10919786Y-12853357D01*
X10934071Y-12910500D01*
X10934071Y-12981929D01*
X10919786Y-13039071D01*
X10905500Y-13067643D01*
X10891214Y-13081929D01*
X10862643Y-13096214D01*
X10834071Y-13096214D01*
X10805500Y-13081929D01*
X10791214Y-13067643D01*
X10776928Y-13039071D01*
X10762643Y-12981929D01*
X10762643Y-12910500D01*
X10776928Y-12853357D01*
X10791214Y-12824786D01*
X10805500Y-12810500D01*
X10834071Y-12796214D01*
X11191214Y-12796214D02*
X11134071Y-12796214D01*
X11105500Y-12810500D01*
X11091214Y-12824786D01*
X11062643Y-12867643D01*
X11048357Y-12924786D01*
X11048357Y-13039071D01*
X11062643Y-13067643D01*
X11076928Y-13081929D01*
X11105500Y-13096214D01*
X11162643Y-13096214D01*
X11191214Y-13081929D01*
X11205500Y-13067643D01*
X11219786Y-13039071D01*
X11219786Y-12967643D01*
X11205500Y-12939071D01*
X11191214Y-12924786D01*
X11162643Y-12910500D01*
X11105500Y-12910500D01*
X11076928Y-12924786D01*
X11062643Y-12939071D01*
X11048357Y-12967643D01*
X11319786Y-12796214D02*
X11519786Y-12796214D01*
X11391214Y-13096214D01*
X11619786Y-12796214D02*
X11619786Y-12853357D01*
X11734071Y-12796214D02*
X11734071Y-12853357D01*
X12176928Y-13210500D02*
X12162643Y-13196214D01*
X12134071Y-13153357D01*
X12119786Y-13124786D01*
X12105500Y-13081929D01*
X12091214Y-13010500D01*
X12091214Y-12953357D01*
X12105500Y-12881929D01*
X12119786Y-12839071D01*
X12134071Y-12810500D01*
X12162643Y-12767643D01*
X12176928Y-12753357D01*
X12334071Y-12924786D02*
X12305500Y-12910500D01*
X12291214Y-12896214D01*
X12276928Y-12867643D01*
X12276928Y-12853357D01*
X12291214Y-12824786D01*
X12305500Y-12810500D01*
X12334071Y-12796214D01*
X12391214Y-12796214D01*
X12419786Y-12810500D01*
X12434071Y-12824786D01*
X12448357Y-12853357D01*
X12448357Y-12867643D01*
X12434071Y-12896214D01*
X12419786Y-12910500D01*
X12391214Y-12924786D01*
X12334071Y-12924786D01*
X12305500Y-12939071D01*
X12291214Y-12953357D01*
X12276928Y-12981929D01*
X12276928Y-13039071D01*
X12291214Y-13067643D01*
X12305500Y-13081929D01*
X12334071Y-13096214D01*
X12391214Y-13096214D01*
X12419786Y-13081929D01*
X12434071Y-13067643D01*
X12448357Y-13039071D01*
X12448357Y-12981929D01*
X12434071Y-12953357D01*
X12419786Y-12939071D01*
X12391214Y-12924786D01*
X12805500Y-13096214D02*
X12805500Y-12796214D01*
X12934071Y-13096214D02*
X12934071Y-12939071D01*
X12919786Y-12910500D01*
X12891214Y-12896214D01*
X12848357Y-12896214D01*
X12819786Y-12910500D01*
X12805500Y-12924786D01*
X13119786Y-13096214D02*
X13091214Y-13081929D01*
X13076928Y-13067643D01*
X13062643Y-13039071D01*
X13062643Y-12953357D01*
X13076928Y-12924786D01*
X13091214Y-12910500D01*
X13119786Y-12896214D01*
X13162643Y-12896214D01*
X13191214Y-12910500D01*
X13205500Y-12924786D01*
X13219786Y-12953357D01*
X13219786Y-13039071D01*
X13205500Y-13067643D01*
X13191214Y-13081929D01*
X13162643Y-13096214D01*
X13119786Y-13096214D01*
X13391214Y-13096214D02*
X13362643Y-13081929D01*
X13348357Y-13053357D01*
X13348357Y-12796214D01*
X13619786Y-13081929D02*
X13591214Y-13096214D01*
X13534071Y-13096214D01*
X13505500Y-13081929D01*
X13491214Y-13053357D01*
X13491214Y-12939071D01*
X13505500Y-12910500D01*
X13534071Y-12896214D01*
X13591214Y-12896214D01*
X13619786Y-12910500D01*
X13634071Y-12939071D01*
X13634071Y-12967643D01*
X13491214Y-12996214D01*
X13748357Y-13081929D02*
X13776928Y-13096214D01*
X13834071Y-13096214D01*
X13862643Y-13081929D01*
X13876928Y-13053357D01*
X13876928Y-13039071D01*
X13862643Y-13010500D01*
X13834071Y-12996214D01*
X13791214Y-12996214D01*
X13762643Y-12981929D01*
X13748357Y-12953357D01*
X13748357Y-12939071D01*
X13762643Y-12910500D01*
X13791214Y-12896214D01*
X13834071Y-12896214D01*
X13862643Y-12910500D01*
X13976928Y-13210500D02*
X13991214Y-13196214D01*
X14019786Y-13153357D01*
X14034071Y-13124786D01*
X14048357Y-13081929D01*
X14062643Y-13010500D01*
X14062643Y-12953357D01*
X14048357Y-12881929D01*
X14034071Y-12839071D01*
X14019786Y-12810500D01*
X13991214Y-12767643D01*
X13976928Y-12753357D01*
M02*
